<?xml version="1.0" encoding="utf-8"?>
<!-- Generator: Adobe Illustrator 27.5.0, SVG Export Plug-In . SVG Version: 6.00 Build 0)  -->
<svg version="1.1" xmlns="http://www.w3.org/2000/svg" xmlns:xlink="http://www.w3.org/1999/xlink" x="0px" y="0px"
	 viewBox="0 0 2000 2000" style="enable-background:new 0 0 2000 2000;" xml:space="preserve">
<g id="BACKGROUND">
	<rect style="fill:#FFFFFF;" width="2000" height="2000"/>
</g>
<g id="OBJECTS">
	<g>
		<path style="fill:#020202;" d="M1885.646,804.415c21.027-263.778-134.673-360.765-337.542-477.088
			c-3.27-2.396-3.614-3.689-0.91-6.976c61.203-66.768,90.598-192.945-2.296-246.479c-81.287-48.984-158.126,28.669-133.62,109.349
			c11.847,54.974,40.972,100.449,79.977,140.155c1.492,1.519,4.358,2.593,1.081,5.551
			c-151.805,143.463-329.037,59.646-475.851-41.936c-110.777-74.209-250.664-3.735-311.003,101.926
			c-2.031,3.258-3.992,4.353-7.78,4.19c-17.981-0.773-35.92,0.207-53.728,2.728c-80.765,11.431-153.309,42.194-217.452,92.57
			C273.11,397.077,108.695,482.481,0,605.528v53.869c55.587-67.703,121.247-131.33,206.896-160.771
			c63.671-22.535,126.502-22.255,186.469,13.217c3.329,1.969,3.526,3.02,0.766,5.804c-72.2,72.756-116.818,181.229-82.664,282.31
			c28.068,97.841,154.04,82.671,187.599,0.549c45.113-88.051,24.931-213.915-44.948-284.024c-1.487-1.492-5.034-2.708-0.967-5.726
			c68.339-50.711,144.386-80.211,229.971-83.69c3.184-0.129,3.95,0.424,2.802,3.679c-25.598,75.21-12.426,166.8,45.714,223.905
			c53.451,50.75,133.126,38.487,165.737-25.969c51.042-105.412-48.408-215.91-152.181-230.399
			c-19.416-2.453,70.344-81.904,81.804-83.257c123.595-80.893,229.343,57.118,340.103,96.633
			c116.573,51.665,258.116,31.993,349.573-59.006c3.004-2.78,4.75-2.977,8.056-0.482c8.525,6.434,17.241,12.662,26.221,18.436
			c223.929,108.39,349.26,265.948,288.485,497.541c-0.874,3.404-1.713,5.525-6.355,5.304
			c-121.209-3.13-261.46,31.663-332.322,137.594c-88.662,194.357,253.849,200.19,359.414-96.233c1.102-2.835,1.768-4.78,5.618-4.204
			c47.393,6.421,92.093,22.469,134.21,44.398v-38.433C1846.262,843.665,1870.933,926.742,1885.646,804.415z M488.709,694.195
			c-1.025,41.557-7.862,80.927-35.49,113.659c-43.09,50.854-106.693,24.074-114.092-35.112
			c-19.072-87.609,20.59-171.609,81.19-233.322c3.691-3.797,5.443-3.057,8.671,0.175
			C471.828,582.493,487.213,635.833,488.709,694.195z M860.301,623.985c-23.986,33.915-69.816,37.322-102.762,7.97
			c-36.856-32.745-47.651-80.561-50.184-127.646c-0.498-13.004,6.898-71.115,18.477-74.658
			C815.995,435.695,917.37,532.982,860.301,623.985z M1519.922,299.944c-1.544,1.884-2.478,1.335-3.851-0.081
			c-49.07-41.861-128.752-196.381-21.099-206.137c23.409,1.325,42.259,11.745,56.55,30.056
			c13.588,17.411,18.82,37.658,18.583,67.164C1568.876,228.792,1547.864,265.845,1519.922,299.944z M1817.66,928.139
			c-34.397,73.409-83.259,133.792-157.771,170.037c-27.971,13.606-57.604,20.761-89.032,15.773
			c-48.906-7.763-65.928-44.949-39.743-87.102c59.756-85.894,172.885-115.211,272.494-119.766
			C1826.965,906.729,1827.562,907.008,1817.66,928.139z"/>
		<path style="fill:#020202;" d="M413.707,2000c-117.121-150.783-86.472-315.928,114.182-362.09
			c130.78-26.104,269.837-31.109,385.919-103.928c213.694-107.644,395.627-558.688,80.087-643.335
			c-60.952-16.983-134.451,0.105-185.951-42.202c-21.59-18.58,2.286-46.913,22.526-54.62c15.816-6.409,32.26-5.843,48.698-4.15
			c96.801,20.671,206.673-48.08,159.424-155.174c-14.18-41.633-60.664-106.241-2.125-133.081
			c63.059-29.559,49.484,51.295,52.991,88.496c-0.99,106.564,145.008,133.847,178.735,27.453
			c6.516-19.326,10.262-41.918,26.932-55.618c18.057,73.987-57.538,130.351-117.709,155.233
			c-50.294,19.431-148.007,60.65-85.902,123.866c87.979,79.751,186.42-26.116,279.574-33.189
			c10.451-1.603,11.438,2.568,5.304,10.262c-13.908,19.84-33.953,32.273-54.424,43.982
			c-115.157,47.591-188.193,186.315-112.164,293.586c36.941,52.425,111.532,76.339,120.28,146.663
			c3.455,26.206,3.837,52.827,7.545,78.982c7.372,96.387,116.277,137.599,198.062,101.381
			c158.505-57.82,281.973-237.763,464.308-204.359v-34.958c-216.936-34.978-331.403,183.691-522.734,217.402
			c-75.698,8.922-114.048-58.903-109.194-124.359c-0.06-60.817-24.598-109.052-72.282-146.463
			c-20.275-15.907-41.432-31.089-56.845-52.326c-65.75-92.951,2.021-205.084,99.317-245.561
			c41.039-17.039,125.13-98.265,42.936-117.768c-90.224-11.133-169.57,96.814-257.787,48.721
			c-73.926-45.905,122.707-74.623,165.345-139.653c105.952-116.548-5.576-246.505-53.294-75.912
			c-11.724,59.888-101.127,57.807-109.646-3.783c-4.701-24.123-2.552-48.539-3.907-72.799
			c0.379-81.625-92.801-86.477-132.259-34.994c-42.212,52.307,5.888,110.271,20.938,163.173
			c27.144,75.008-63.758,111.058-124.193,97.141c-80.313-20.449-174.949,70.76-85.36,130.379
			c51.339,31.45,114.558,23.777,171.654,34.924c266.436,48.053,141.221,415.375-6.838,533.212
			c-174.412,166.901-414.11,89.922-573.372,208.672c-113.401,83.418-96.853,233.539-20.072,336.793H413.707z"/>
		<path style="fill:#020202;" d="M858.143,941.269c-105.133-5.299-223.69,35.038-283.606,125.306
			c-27.087,47.12-6.829,89.425,46.713,98.61c48.419,8.29,97.764-8.393,145.578,4.829c18.225,5.45,23.507,15.609,18.058,33.746
			c-23.965,64.802-108.419,100.272-176.827,87.166c-38.812-7.855-72.324-26.858-104.147-48.895
			C359.937,1144.178,174.636,1064.201,0,1119.998v36.182c125.77-47.618,265.168-5.496,381.013,51.031
			c94.308,45.995,177.335,140.432,291.588,117.579c136.375-15.695,235.8-209.641,29.756-193.698
			c-34.623,1.042-129.174,16.042-99.266-45.682c60.484-84.516,165.566-118.874,266.424-107.951
			c67.601,7.832,102.293,55.041,94.936,121.776c-23.755,139.933-149.323,237.988-272.946,291.768
			c-163.838,78.854-403.756,52.789-534.346,182.461C50.606,1709.429,143.987,1893.888,252.544,2000h50.718
			c-81.852-73.289-153.947-169.406-157.573-284.688c-17.117-283.655,508.05-168.236,723.299-395.477
			C995.287,1221.116,1087.971,967.087,858.143,941.269z"/>
		<path style="fill:#020202;" d="M1385.942,0c-39.498,72.691-30.843,159.482-63.888,234.363
			c-42.21,78.751-108.58-21.538-134.659-63.342c43.768-46.841,52.617-109.639,38.724-171.022h-35.956
			c12.376,45.624,13.025,98.048-18.714,135.877c-1.238,1.366-2.29,3.612-4.082,0.184c-23.029-44.063-44.519-88.78-60.033-136.061
			h-35.871c16.215,52.885,39.777,103.118,65.75,151.833c11.065,17.835-86.246,10.089-97.893,4.153
			c-137.879-33.902-192.38-174.759-349.925-71.34C545.125,185.94,567.63,377.568,324.847,252.218
			c-2.473-1.393-2.463-2.42-1.319-4.86C361.237,171.027,374.244,75.917,330.462,0h-40.434
			c47.472,66.637,40.428,155.472,4.533,228.688c-0.806,1.752-1.12,3.85-3.997,1.791C221.732,176.73,112.921,96.229,114.553,0H79.817
			c3.226,116.379,108.463,194.243,193.13,259.824c1.604,1.103,4.675,1.573,2.575,4.997C222.921,362.402,108.85,442.597,0,384.347
			v37.913c121.646,52.283,244.325-30.655,303.124-137.34c2.331-3.812,3.832-3.811,7.343-1.794
			c21.848,12.552,44.572,23.298,68.653,30.836c172.92,52.18,201.426-62.563,292.266-169.992
			c156.575-148.901,212.528,13.283,362.06,45.774c39.379,8.772,78.755,12.609,117.869-0.963c4.848-1.682,6.605-0.777,9.119,3.26
			c18.928,30.398,39.857,59.254,67.365,82.665c54.535,50.757,116.441,13.912,135.463-49.615
			c22.671-74.719,20.479-157.874,62.111-225.092H1385.942z"/>
		<path style="fill:#020202;" d="M574.225,2000c-37.413-107.356,56.061-188.126,155.157-201.254
			c36.948-6.1,73.419-13.618,105.779-33.992c79.428-46.563,109.959-133.705,157.587-206.255
			c70.065-92.224,270.206-139.797,305.914,3.39c20.243,68.264-16.714,131.259-44.001,191.45
			c-29.918,74.749,17.773,139.758,97.387,130.83c85.05-11.541,169.772-91.222,155.527-181.735
			c-1.847-45.479-57.016-97.882-10.504-134.773c54.513-55.111,130.161-18.655,196.386-35.936
			c110.811-17.661,192.909-125.964,306.544-115.043v-34.409c-142.901-13.462-242.698,145.647-395.908,118.941
			c-67.128-9.747-165.908,33.275-159.838,112.081c7.889,43.736,39.151,82.586,28.837,129.022
			c-8.765,84.686-204.916,175.202-191.149,37.971c5.691-22.121,16.872-41.946,26.763-62.261
			c85.05-156.173-20.775-331.453-204.253-269.617c-113.496,31.153-151.069,101.242-202.257,198.602
			c-39.522,60.853-89.386,106.404-165.302,115.937c-120.447,10.577-234.974,109.576-198.708,237.05H574.225z"/>
		<path style="fill:#020202;" d="M2000,1054.462c-72.902,12.005-121.476,77.053-178.734,119.244
			c-158.229,149.685-564.083,65.031-434.138-200.66c25.479-44.832,66.323-68.257,114.124-82.308
			c44.272-13.013,89.627-22.341,132.468-40.207c180.105-64.456,114.546-306.883-37.313-362.281
			c-95.541-50.737-246.897-6.988-254.64,113.889c-5.056,76.668,81.498,152.709,157.767,140.279
			c117.076-19.411,52.062-162.929-36.313-160.498c-51.559,0.058-40.127,55.099-9.564,38.336
			c43.573-22.957,115.577,71.458,48.476,86.605c-66.092,13.376-142.526-52.462-123.365-120.865
			c83.029-203.973,414.657,0.948,312.752,179.092c-43.7,63.473-128.87,70.554-197.031,91.966
			c-155.419,29.648-226.202,244.097-105.188,349.846c122.635,108.182,314.616,95.418,441.91,1.988
			c57.155-37.258,100.304-104.113,168.786-119.023V1054.462z"/>
		<path style="fill:#020202;" d="M545.962,796.053c-20.067,14.229-33.276,34.881-48.667,53.464
			C389.152,984.844,155.401,959.358,233.761,746.87c8.83-31.391,21.432-61.79,24.608-94.675
			c8.321-68.151-57.778-88.293-108.293-64.225C76.707,622.167,60.978,712.116,0,761.396v42.286
			c54.118-34.445,86.446-96.492,121.744-148.968c17.654-25.775,41.675-41.295,73.662-42.09c39.405-2.657,29.636,45.203,22.21,69.682
			c-12.776,43.607-27.933,86.545-32.594,132.231c-20.611,152.521,173.905,188.174,274.884,114.608
			c34.552-21.399,59.82-52.104,84.394-83.585c9.956-12.754,20.914-24.652,37.07-29.933c15.158-4.954,25.773,0.796,29.335,16.232
			c8.145,60.997-38.856,114.045-82.605,150.246C293.088,1160.364,202.806,922.372,0,975.192v35.032
			c121.712-42.869,218.752,69.156,337.741,71.698c140.447,4.565,299.799-95.056,308.449-243.236
			C646.661,783.623,585.822,762.451,545.962,796.053z"/>
		<path style="fill:#020202;" d="M300.427,1222.556C186.862,1185.791,69.537,1237.224,0,1328.855v69.875
			c48.897-114.494,186.955-189.864,307.032-136.83c32.916,14.073,48.566,38.766,44.597,68.934
			c-2.805,21.318-16.164,36.579-31.533,50.237c-23.293,20.699-49.999,36.474-77.484,50.586
			C23.727,1542.366-62.683,1781.499,51.942,2000H90.22c-113.079-202.482-46.236-423.809,159.769-533.259
			c35.948-19.201,71.819-38.921,101.201-68.007C419.593,1336.498,380.157,1241.291,300.427,1222.556z"/>
		<path style="fill:#020202;" d="M1728.355,1819.15c4.818,1.701,4.542,2.902,1.565,6.062
			c-71.486,82.257-168.063,135.09-266.629,174.789h86.429c85.03-41.869,161.195-99.309,222.783-169.567
			c77.689,13.761,156.096-2.451,227.497-33.612v-37.766c-63.704,30.161-130.065,47.46-202.163,40.554
			c-5.864-0.526-8.531-0.623-4.787-7.922c48.165-75.62,25.3-214.557-76.754-220.906c-42.337-2.278-76.003,14.761-98.78,50.159
			C1563.605,1704.521,1648.585,1795.819,1728.355,1819.15z M1775.686,1653.793c5.592,14.109,7.943,28.747,7.825,50.997
			c-0.353,25.94-11.055,55.899-27.721,84.062c-0.943,1.593-1.819,2.603-3.858,1.987c-45.091-13.613-84.755-35.086-107.37-78.706
			C1596.691,1620.667,1739.376,1556.814,1775.686,1653.793z"/>
		<path style="fill:#020202;" d="M1003.941,1894.338c-35.246,39.929-79.194,73.745-120.08,105.662h56.435
			c132.577-104.487,40.203-96.949,158.892,0h62.614c-43.049-24.525-82.075-57.037-109.554-100.471
			c-2.457-3.678-2.33-5.847,0.492-9.179c50.353-62.569,102.755-134.121,104.305-217.565c-0.47-32.905-11.187-61.745-42.804-77.146
			c-70.397-32.674-135.459,43.182-142.496,108.355c-10.54,64.484,4.852,124.534,33.439,181.979
			C1006.967,1889.558,1006.608,1891.476,1003.941,1894.338z M1032.382,1648.376c27.078-37.135,89.8-37.225,90.328,21.392
			c-0.244,72.335-46.168,134.275-88.38,189.355c-1.213,1.504-2.334,4.631-4.328,0.23c-16.808-37.092-27.006-75.704-27.358-119.346
			C1003.131,1708.3,1009.305,1675.514,1032.382,1648.376z"/>
		<path style="fill:#020202;" d="M2000,414.182c-27.83-61.576-82.069-104.388-158.83-105.829
			c-46.582-4.728-139.364-4.124-120.891-74.176c23.266-77.256,55.537-153.499,29.325-234.177h-36.412
			c57.432,125.422-108.616,270.354,25.385,325.318c53.829,22.333,115.398,7.885,168.088,33.146
			c117.705,66.187,61.453,212.657,93.334,322.347V414.182z"/>
		<path style="fill:#020202;" d="M2000,1666.64c-131.601-6.223-113.674-172.29,0-172.47v-34.387
			c-164.6,5.421-169.832,235.961,0,241.51V1666.64z"/>
		<path style="fill:#020202;" d="M568.117,0c-26.849,36.777-50.296,77.9-89.44,102.622C412.777,136.387,425.856,45.845,435.006,0
			h-35.45c-11.176,61.844-14.225,160.173,71.787,142.437C537.311,120.644,570.628,52.699,610.243,0H568.117z"/>
		<path style="fill:#020202;" d="M689.413,2000c27.261-128.047,177.849-178.748,123.561,0h36.204
			c57.179-222.891-168.599-172.42-194.826,0H689.413z"/>
		<path style="fill:#020202;" d="M91.575,200.499C72.569,160.221,37.535,129.449,0,106.306v40.607
			c63.683,42.066,109.177,138.375,0,144.541v34.85C68.216,326.119,124.479,268.221,91.575,200.499z"/>
		<path style="fill:#020202;" d="M1827.099,2000c17.699-5.553,35.983-8.767,54.531-10.828c40.18-4.464,79.543-0.526,118.37,8.696
			v-35.094c-85.313-18.254-179.781-12.237-252.186,37.227H1827.099z"/>
		<path style="fill:#020202;" d="M2000,156.701C1939.699,130.942,1901.631,64.057,1892.571,0h-34.739
			c10.477,82.477,61.888,166.429,142.168,193.55V156.701z"/>
		<path style="fill:#020202;" d="M994.316,0c-1.818,21.299-6.425,50.984-29.918,38.026C945.972,28.753,931.359,15.202,918.244,0
			h-46.19c56.022,69.937,143.636,127.12,156.855,0H994.316z"/>
	</g>
</g>
</svg>
