<?xml version="1.0" encoding="utf-8"?>
<!-- Generator: Adobe Illustrator 27.5.0, SVG Export Plug-In . SVG Version: 6.00 Build 0)  -->
<svg version="1.1" xmlns="http://www.w3.org/2000/svg" xmlns:xlink="http://www.w3.org/1999/xlink" x="0px" y="0px"
	 viewBox="0 0 750 500" style="enable-background:new 0 0 750 500;" xml:space="preserve">
<g id="BACKGROUND">
	<rect style="fill:#E0A8A8;" width="750" height="500"/>
</g>
<g id="OBJECTS">
	<g>
		<defs>
			<rect id="SVGID_1_" width="750" height="500"/>
		</defs>
		<clipPath id="SVGID_00000088832163541568686570000007456462516496211862_">
			<use xlink:href="#SVGID_1_"  style="overflow:visible;"/>
		</clipPath>
		<g style="clip-path:url(#SVGID_00000088832163541568686570000007456462516496211862_);">
			<path style="fill:#DE6B4E;" d="M267.438,443.747l20.758,12.356l0,0c5.845,2.358,10.069,7.552,11.188,13.755l0.015,0.084h-63.428
				l5.107-26.195H267.438z"/>
			<path style="fill:#FFFFFF;" d="M299.384,469.858c-1.118-6.203-5.343-11.397-11.188-13.755l-13.54-8.059l-12.326,2.622
				l2.306,7.084c0,0-5.53-5.94-24.962-6.81l-3.705,19.001h63.428L299.384,469.858z"/>
			<path style="fill:#DE6B4E;" d="M129.255,455.47l-6.893-3.93l-6.775-15.069l-18.75-11.122l-19.822,18.399l27.209,22.784
				c2.631,2.203,5.954,3.411,9.386,3.411h25.001l0,0C138.033,463.883,134.542,458.484,129.255,455.47z"/>
			<path style="fill:#FFFFFF;" d="M129.255,455.47l-6.893-3.93l-2.742-6.099l-9.772-5.668l-1.21,10.079
				c-2.332-8.744-12.175-15.94-17.452-19.257l-14.171,13.153l27.209,22.784c2.631,2.203,5.954,3.411,9.386,3.411h25.001
				C138.033,463.883,134.542,458.484,129.255,455.47z"/>
			<g>
				<path style="fill:#DE6B4E;" d="M145.83,272.522l-3.878,9.936c-0.91,2.333-3.158,3.869-5.662,3.869l0,0
					c0,0-1.684,1.459-3.704,1.684c0,0-1.684,1.235-3.928,1.122c0,0-3.183,1.328-4.938,0.007c-1.647-1.24-1.522-4.215-1.21-6.228
					c0.179-1.154,1.167-2.005,2.335-2.005h1.456l3.367-8.384H145.83z"/>
				
					<line style="fill:none;stroke:#122030;stroke-width:0.935;stroke-linecap:round;stroke-linejoin:round;stroke-miterlimit:10;" x1="125.89" y1="281.975" x2="124.209" y2="286.337"/>
				
					<line style="fill:none;stroke:#122030;stroke-width:0.935;stroke-linecap:round;stroke-linejoin:round;stroke-miterlimit:10;" x1="128.736" y1="287.733" x2="130.978" y2="281.683"/>
				
					<line style="fill:none;stroke:#122030;stroke-width:0.935;stroke-linecap:round;stroke-linejoin:round;stroke-miterlimit:10;" x1="132.549" y1="286.699" x2="134.791" y2="280.649"/>
				
					<line style="fill:none;stroke:#122030;stroke-width:0.935;stroke-linecap:round;stroke-linejoin:round;stroke-miterlimit:10;" x1="136.535" y1="285.229" x2="138.777" y2="279.179"/>
			</g>
			<path style="fill:#122030;" d="M196.781,101.673l5.255,4.892c8.032,7.477,14.212,16.721,18.053,27l21.835,58.449l40.254,66.532
				l-50.877,24.6l-43.609-122.161L196.781,101.673z"/>
			
				<line style="fill:none;stroke:#334A63;stroke-width:1.0305;stroke-linecap:round;stroke-linejoin:round;stroke-miterlimit:10;" x1="272.148" y1="247.424" x2="229.054" y2="268.58"/>
			<polygon style="fill:#8F4A4A;" points="161.15,215.603 147.48,314.345 91.715,423.509 125.612,444.734 203.187,333.937 
				213.992,213.562 			"/>
			<path style="fill:#122030;" d="M158.199,236.919l-10.719,77.426l-0.512,1.002c-3.723,7.287,1.568,16.114,9.749,15.942
				c4.711-0.099,9.402,1.087,13.645,4.332c7.078,5.412,10.454,16.513,11.927,28.163l20.898-29.847l5.566-62.005L158.199,236.919z"/>
			
				<path style="fill:none;stroke:#122030;stroke-width:0.935;stroke-linecap:round;stroke-linejoin:round;stroke-miterlimit:10;" d="
				M105.67,432.247l59.99-94.585c4.956-7.814,8.041-16.666,9.015-25.867l9.717-91.776"/>
			<path style="fill:#8F4A4A;" d="M216.513,202.611v20.538l26.022,72.357c8.275,23.009,14.634,46.662,19.014,70.718l14.609,80.238
				h-41.223l-78.685-194.896c-3.665-9.079-5.55-18.779-5.55-28.57v-20.384H216.513z"/>
			
				<line style="fill:none;stroke:#122030;stroke-width:0.935;stroke-linecap:round;stroke-linejoin:round;stroke-miterlimit:10;" x1="253.249" y1="446.462" x2="179.258" y2="205.104"/>
			
				<path style="fill:none;stroke:#122030;stroke-width:0.935;stroke-linecap:round;stroke-linejoin:round;stroke-miterlimit:10;" d="
				M194.551,205.104c0,0,5.665,17.764-6.149,29.828"/>
			<g>
				<path style="fill:#FFFFFF;" d="M170.949,79.281l-1.189-0.803c-3.018-2.039-5.108-5.187-5.816-8.76l-2.706-13.662h24.202
					C185.44,56.055,182.704,75.459,170.949,79.281z"/>
				<path style="fill:#DE6B4E;" d="M199.985,57.129l0.596,8.374l2.631,3.779c0.537,0.771-0.015,1.827-0.954,1.827h-2.272
					c0,0,1.107,4.775-0.761,9.62c-1.869,4.845-9.412,3.322-9.412,3.322l0.83,10.866h-23.185l3.588-16.067
					c0.673-3.014,2.279-5.744,4.632-7.744c3.033-2.578,7.001-7.221,7.214-13.977H199.985z"/>
				<path style="fill:#122030;" d="M189.812,84.051c-4.171-0.227-7.761-1.471-10.263-3.317c-1.058-0.781-2.511,0.315-2.05,1.546
					c1.342,3.586,4.659,7.95,12.837,8.625L189.812,84.051z"/>
				<path style="fill:#DE6B4E;" d="M181.784,67.787l-4.131-3.575c-1.789-1.548-4.416-1.634-6.302-0.208h0
					c-1.443,1.091-1.984,3.009-1.325,4.693h0c0.473,1.21,1.5,2.118,2.759,2.441l6.37,1.632L181.784,67.787z"/>
				
					<path style="fill:none;stroke:#122030;stroke-width:1.0305;stroke-linecap:round;stroke-linejoin:round;stroke-miterlimit:10;" d="
					M172.025,66.679c0,0,3.391-1.869,7.267,2.353"/>
				<path style="fill:#122030;" d="M197.111,63.942c0,1.023-0.83,1.853-1.853,1.853c-1.023,0-1.853-0.83-1.853-1.853
					c0-1.023,0.829-1.853,1.853-1.853C196.281,62.089,197.111,62.918,197.111,63.942z"/>
				
					<line style="fill:none;stroke:#FFFFFF;stroke-width:1.9714;stroke-miterlimit:10;" x1="191.971" y1="60.281" x2="197.111" y2="60.281"/>
				
					<line style="fill:none;stroke:#122030;stroke-width:1.0305;stroke-linecap:round;stroke-linejoin:round;stroke-miterlimit:10;" x1="198.304" y1="74.17" x2="193.405" y2="74.17"/>
				<path style="fill:#334A63;" d="M139.669,58.444h82.205c-2.62-3.435-20.017-6.09-41.103-6.09S142.288,55.008,139.669,58.444z"/>
				<path style="fill:#334A63;" d="M200.581,55.171h-39.552l-0.841-8.537c-0.622-6.307,4.519-11.688,10.848-11.354l17.964,0.948
					c5.511,0.291,10,4.533,10.602,10.019L200.581,55.171z"/>
				<polygon style="fill:#FF780A;" points="161.029,55.171 200.581,55.171 199.798,48.03 160.325,48.03 				"/>
			</g>
			<path style="fill:#334A63;" d="M163.011,91.913h34.944l-1.173,9.759v0c5.874,7.368,9.788,16.103,11.379,25.391l10.739,62.717
				l3.458,4.766c4.554,6.275,0.071,15.068-7.683,15.068H161.33l-8.29,66.856H82.444l48.697-147.257
				c4.083-12.348,13.052-22.48,24.813-28.033l6.063-2.862L163.011,91.913z"/>
			<path style="fill:#122030;" d="M161.33,209.615l5.17-41.698c0.703-5.673,8.837-5.918,9.881-0.298l4.603,24.79
				c0,0,9.784,7.131,10.343,17.205H161.33z"/>
			<g>
				
					<line style="fill:none;stroke:#122030;stroke-width:1.0305;stroke-linecap:round;stroke-linejoin:round;stroke-miterlimit:10;" x1="193.792" y1="101.779" x2="166.531" y2="99.371"/>
				
					<line style="fill:none;stroke:#122030;stroke-width:1.0305;stroke-linecap:round;stroke-linejoin:round;stroke-miterlimit:10;" x1="170.479" y1="135.831" x2="161.33" y2="209.615"/>
				
					<path style="fill:none;stroke:#122030;stroke-width:1.0305;stroke-linecap:round;stroke-linejoin:round;stroke-miterlimit:10;" d="
					M170.479,132.372c0,0,4.283-23.389-18.527-25.516"/>
				
					<path style="fill:none;stroke:#122030;stroke-width:1.0305;stroke-linecap:round;stroke-linejoin:round;stroke-miterlimit:10;" d="
					M176.591,138.946c0,0-1.114,9.762-8.508,16.207"/>
			</g>
			
				<line style="fill:none;stroke:#122030;stroke-width:0.935;stroke-linecap:round;stroke-linejoin:round;stroke-miterlimit:10;" x1="91.153" y1="262.834" x2="150.701" y2="262.834"/>
		</g>
		<g style="clip-path:url(#SVGID_00000088832163541568686570000007456462516496211862_);">
			<g>
				<path style="fill:none;stroke:#122030;stroke-width:2;stroke-linecap:round;stroke-linejoin:round;stroke-miterlimit:10;" d="
					M338.484,290.45h66.135l-15.534-24.074c-8.219-12.737-26.848-12.737-35.067,0L338.484,290.45z"/>
				<g>
					<path style="fill:#8F4A4A;" d="M406.44,354.237h-69.779c-7.934,0-14.086-6.929-13.148-14.807l6.269-52.624h83.537l6.269,52.624
						C420.527,347.308,414.374,354.237,406.44,354.237z"/>
					
						<path style="fill:none;stroke:#EBDDC8;stroke-width:1.0305;stroke-linecap:round;stroke-linejoin:round;stroke-miterlimit:10;" d="
						M409.94,291.452l-30.505,27.434c-4.483,4.032-11.285,4.032-15.768,0l-30.505-27.434"/>
					<circle style="fill:#122030;" cx="371.551" cy="313.816" r="3.164"/>
				</g>
			</g>
			<path style="fill:#AB5F5F;" d="M404.066,427.942l-1.313,16.875l2.195,17.829c0.477,3.876-2.547,7.296-6.452,7.296H355.63
				c-3.591,0-6.501-2.911-6.501-6.501l0,0c0-2.536,1.455-4.848,3.742-5.945l19.381-9.292c3.253-1.56,5.462-4.698,5.831-8.287
				l1.233-11.975H404.066z"/>
			<path style="fill:#122030;" d="M381.626,440.177h-3.587c-0.448,3.478-2.614,6.506-5.787,8.028l-19.151,9.182
				c-2.212,1.06-3.806,3.19-3.959,5.638c-0.235,3.779,2.76,6.917,6.488,6.917h42.867c3.906,0,6.93-3.419,6.452-7.296l-1.687-13.704
				h-12.87c-1.716,0-3.107-1.391-3.107-3.107l0,0C387.285,442.71,384.752,440.177,381.626,440.177z"/>
			
				<line style="fill:none;stroke:#334A63;stroke-width:0.9499;stroke-linecap:round;stroke-linejoin:round;stroke-miterlimit:10;" x1="402.895" y1="462.958" x2="351.426" y2="462.958"/>
			<path style="fill:#AB5F5F;" d="M487.129,427.942l3.375,16.781l4.211,17.923c0.477,3.876-2.547,7.296-6.453,7.296h-42.867
				c-3.59,0-6.501-2.911-6.501-6.501l0,0c0-2.536,1.455-4.848,3.742-5.945l24.617-11.803l-4.875-17.751H487.129z"/>
			<path style="fill:#122030;" d="M471.392,440.177h-3.923c-0.851,0-1.524,0.732-1.441,1.579c0.285,2.923-1.305,5.152-4.01,6.449
				l-19.151,9.182c-2.212,1.06-3.806,3.19-3.959,5.638c-0.235,3.779,2.76,6.917,6.488,6.917h42.867c3.906,0,6.93-3.419,6.453-7.296
				l-3.22-13.704h-11.337c-1.716,0-3.107-1.391-3.107-3.107l0,0C477.051,442.71,474.517,440.177,471.392,440.177z"/>
			
				<line style="fill:none;stroke:#334A63;stroke-width:0.9499;stroke-linecap:round;stroke-linejoin:round;stroke-miterlimit:10;" x1="492.66" y1="462.958" x2="441.191" y2="462.958"/>
			<g>
				<path style="fill:#AB5F5F;" d="M368.137,241.503l-5.391,12.185c-0.603,1.362-0.914,2.835-0.914,4.325l0,0
					c0,3.417,2.77,6.187,6.187,6.187h11.342c2.44,0,4.516-1.779,4.889-4.191l2.861-18.506H368.137z"/>
				
					<path style="fill:none;stroke:#122030;stroke-width:0.9499;stroke-linecap:round;stroke-linejoin:round;stroke-miterlimit:10;" d="
					M376.742,245.371c0,4.686-4.441,8.954-4.441,8.954h2.221c1.226,0,2.221,0.994,2.221,2.22l0,0c0,1.226-0.994,2.221-2.221,2.221
					h-7.67c-1.677,0-3.036-1.359-3.036-3.036v-2.88"/>
				
					<line style="fill:none;stroke:#122030;stroke-width:0.9499;stroke-linecap:round;stroke-linejoin:round;stroke-miterlimit:10;" x1="366.545" y1="262.638" x2="367.188" y2="258.767"/>
				
					<line style="fill:none;stroke:#122030;stroke-width:0.9499;stroke-linecap:round;stroke-linejoin:round;stroke-miterlimit:10;" x1="371.23" y1="262.638" x2="371.872" y2="258.767"/>
				
					<line style="fill:none;stroke:#122030;stroke-width:0.9499;stroke-linecap:round;stroke-linejoin:round;stroke-miterlimit:10;" x1="375.915" y1="262.638" x2="377.468" y2="253.277"/>
				
					<line style="fill:none;stroke:#122030;stroke-width:0.9499;stroke-linecap:round;stroke-linejoin:round;stroke-miterlimit:10;" x1="380.6" y1="262.638" x2="382.153" y2="253.277"/>
				
					<path style="fill:none;stroke:#122030;stroke-width:0.9499;stroke-linecap:round;stroke-linejoin:round;stroke-miterlimit:10;" d="
					M374.354,251.848c0,0,1.61-0.875,3.114,0c0,0,2.381-1.873,4.685,0.221"/>
			</g>
			<polygon style="fill:#FF780A;" points="391.867,245.411 359.055,245.411 361.692,231.443 394.504,231.443 			"/>
			<path style="fill:#FFFFFF;" d="M405.434,103.813l-5.721,4.393c-8.759,6.724-15.083,16.124-18.012,26.77l-2.759,10.03
				c0,0-7.875,7.875-8.25,23.062c-9.563,14.063-9.188,32.063-9.188,32.063c-10.125,7.313-20.816,36.375-0.002,36.375
				c20.814,0,41.814,0,41.814,0L405.434,103.813z"/>
			<path style="fill:#122030;" d="M403.317,236.505l1.597-100.073l-10.409,4.073c0,0-12.174,20.531-8.29,39.094
				c-10.178,17.719-6.522,35.156-6.522,35.156l-2.579,7.915c-2.225,6.826,2.863,13.835,10.042,13.835H403.317z"/>
			<path style="fill:#592E2E;" d="M394.879,207.724l-17.476,111.961c-1.294,8.288-2.046,16.651-2.251,25.036l-2.211,90.158h34.875
				l12.234-98.25l38.016-128.906H394.879z"/>
			<path style="fill:#122030;" d="M411.178,246.076c0,0-17.28,61.284-7.215,89.286c1.49,4.146,2.144,8.56,2.026,12.964
				c-0.207,7.683,1.277,14.623,3.356,20.472c1.237,3.48,6.341,2.891,6.797-0.774l3.909-31.395l14.902-50.532L411.178,246.076z"/>
			<path style="fill:#592E2E;" d="M408.191,207.724l8.402,107.898c1.142,14.669,4.522,29.077,10.022,42.724l30.846,76.534h36.675
				l-21.389-105.506l-5.306-121.65H408.191z"/>
			<g>
				<path style="fill:#AB5F5F;" d="M459.101,249.354l-3.016,12.185c-0.337,1.362-0.361,2.835-0.071,4.325l0.49,2.517
					c0.416,2.132,2.283,3.67,4.454,3.67h13.79c2.44,0,4.169-1.779,4.072-4.191l-0.745-18.506H459.101z"/>
			</g>
			<polygon style="fill:#FF780A;" points="483.191,251.605 453.991,251.605 453.029,237.636 482.229,237.636 			"/>
			
				<path style="fill:none;stroke:#122030;stroke-width:0.9499;stroke-linecap:round;stroke-linejoin:round;stroke-miterlimit:10;" d="
				M456.289,267.272l3.094-1.057c1.656-0.566,2.542-2.364,1.982-4.022l-1.142-3.376"/>
			
				<path style="fill:none;stroke:#122030;stroke-width:0.9499;stroke-linecap:round;stroke-linejoin:round;stroke-miterlimit:10;" d="
				M400.223,207.724c0,0-1.865,25.932,10.599,33.779"/>
			
				<line style="fill:none;stroke:#122030;stroke-width:0.9499;stroke-linecap:round;stroke-linejoin:round;stroke-miterlimit:10;" x1="408.191" y1="207.724" x2="411.263" y2="247.176"/>
			
				<line style="fill:none;stroke:#122030;stroke-width:0.9499;stroke-linecap:round;stroke-linejoin:round;stroke-miterlimit:10;" x1="398.254" y1="245.411" x2="432.566" y2="247.176"/>
			
				<line style="fill:none;stroke:#122030;stroke-width:0.9499;stroke-linecap:round;stroke-linejoin:round;stroke-miterlimit:10;" x1="375.461" y1="424.567" x2="405.848" y2="424.567"/>
			
				<line style="fill:none;stroke:#122030;stroke-width:0.9499;stroke-linecap:round;stroke-linejoin:round;stroke-miterlimit:10;" x1="458.066" y1="424.567" x2="489.941" y2="424.567"/>
			<path style="fill:#FFFFFF;" d="M445.082,97.896l16.942,12.081c10.467,7.464,17.37,15.341,19.556,31.805l8.642,34.16
				c0,0,8.719,9.563,2.156,24.938c0,0,7.969,14.156,0.094,25.687c1.406,11.813-1.406,18.844-15.469,18.844H460.13
				c-6.19,0-11.337-4.765-11.813-10.937l-2.063-26.75h-51.375v-6.75h-2.396c-4.685,0-7.711-4.958-5.568-9.124l5.433-10.563
				c0,0-3.26-29.552,0.756-58.156c1.2-8.544,6.345-16.053,13.881-20.252c6.762-3.767,13.347-6.811,13.347-6.811L445.082,97.896z"/>
			
				<line style="fill:none;stroke:#122030;stroke-width:0.9499;stroke-linecap:round;stroke-linejoin:round;stroke-miterlimit:10;" x1="396.566" y1="200.88" x2="443.535" y2="200.88"/>
			<path style="fill:#122030;" d="M446.254,207.724l-3.187-62.719l-18.402,53.065c-1.638,4.724,1.87,9.653,6.87,9.653H446.254z"/>
			
				<path style="fill:none;stroke:#122030;stroke-width:0.9499;stroke-linecap:round;stroke-linejoin:round;stroke-miterlimit:10;" d="
				M442.879,139.193c-0.563-13.125,12.375-23.063,20.625-22.875"/>
			<path style="fill:#FF780A;" d="M445.082,97.896l-24.75-1.828c0,0-1.9,0.879-4.7,2.272c-4.862,10.525-1.909,16.009,3.997,17.134
				c5.906,1.125,18.628,0.076,29.845-14.446L445.082,97.896z"/>
			
				<line style="fill:none;stroke:#122030;stroke-width:0.9499;stroke-linecap:round;stroke-linejoin:round;stroke-miterlimit:10;" x1="408.191" y1="175.005" x2="430.129" y2="149.13"/>
			<path style="fill:#122030;" d="M423.004,39.068l18.822,5.964c8.201,2.598,12.631,11.481,9.739,19.583
				c-2.28,6.384-5.816,12.921-11.135,15.563L410.16,64.662l-2.121-0.734c-4.631-1.603-7.867-5.805-8.235-10.692l-0.327-4.355
				c-0.68-9.045,8.059-15.98,16.657-13.091C418.301,36.518,420.603,37.576,423.004,39.068z"/>
			<path style="fill:#AB5F5F;" d="M419.77,50.787l0.832,8.014c0.433,4.173,3.334,7.676,7.354,8.879l11.221,3.357l3.375,24.609
				l2.531,2.25c0,0-7.453,13.078-22.5,13.078c-10.828,0-2.25-14.906-2.25-14.906l0.422-7.734
				c-8.648-0.492-13.359-5.063-12.375-15.75l-2.449-1.47c-0.552-0.331-0.664-1.084-0.232-1.562l1.902-2.103
				c1.172-1.295,1.968-2.884,2.305-4.598l1.568-7.986C411.473,54.865,416.113,54.724,419.77,50.787z"/>
			<path style="fill:#9C4343;" d="M426.925,74.539c0,2.382-1.931,4.313-4.313,4.313c-2.382,0-4.313-1.931-4.313-4.313
				c0-2.382,1.931-4.313,4.313-4.313C424.994,70.226,426.925,72.157,426.925,74.539z"/>
			<path style="fill:#122030;" d="M420.332,96.068l0.422-7.734c1.637-0.059,4.729-0.084,7.742-1.751
				c0.875-0.484,1.914,0.319,1.708,1.297C429.48,91.33,427.241,96.742,420.332,96.068z"/>
			<path style="fill:#AB5F5F;" d="M431.139,71.646l6.939-6.741c1.844-1.791,4.677-2.08,6.844-0.698l0,0
				c2.008,1.281,2.974,3.701,2.399,6.013l0,0c-0.567,2.279-2.258,4.111-4.485,4.858l-7.807,2.619L431.139,71.646z"/>
			
				<path style="fill:none;stroke:#122030;stroke-width:1.0305;stroke-linecap:round;stroke-linejoin:round;stroke-miterlimit:10;" d="
				M435.533,72.798c0,0,4.762-7.492,9.549-4.394"/>
			<path style="fill:#122030;" d="M416.113,64.076c0,1.01-0.819,1.828-1.828,1.828c-1.01,0-1.828-0.819-1.828-1.828
				c0-1.01,0.819-1.828,1.828-1.828C415.295,62.248,416.113,63.066,416.113,64.076z"/>
			<path style="fill:none;stroke:#122030;stroke-width:1.9714;stroke-miterlimit:10;" d="M412.45,60.138
				c0,0,3.019-1.945,5.849-0.006"/>
			
				<path style="fill:none;stroke:#122030;stroke-width:1.0305;stroke-linecap:round;stroke-linejoin:round;stroke-miterlimit:10;" d="
				M410.191,74.482c0,0,4.992,0.844,8.789,0"/>
		</g>
		<g style="clip-path:url(#SVGID_00000088832163541568686570000007456462516496211862_);">
			<g>
				<polygon style="fill:#122030;" points="610.981,438.067 580.418,438.067 576.856,469.942 594.386,469.942 594.949,462.337 
					607.54,469.942 637.986,469.942 637.986,457.379 				"/>
				<polygon style="fill:#334A63;" points="576.856,469.942 594.386,469.942 594.949,462.337 607.54,469.942 637.986,469.942 
					637.986,457.379 578.26,457.379 				"/>
			</g>
			<g>
				<polygon style="fill:#122030;" points="693.229,427 664.414,437.184 671.677,468.424 688.206,462.583 686.202,455.225 
					700.607,458.199 729.313,448.053 725.127,436.209 				"/>
				<polygon style="fill:#334A63;" points="671.677,468.424 688.206,462.583 686.202,455.225 700.607,458.199 729.313,448.053 
					725.127,436.209 668.815,456.112 				"/>
			</g>
			<path style="fill:#FFFFFF;" d="M630.924,69.904c1.647-2.659,2.453-5.936,2.063-9.373c-0.828-7.31-6.75-12.717-13.522-12.626
				c-3.536-3.157-8.314-5.108-13.588-5.108c-10.878,0-19.697,8.249-19.697,18.424s8.818,18.424,19.697,18.424
				c2.16,0,4.233-0.337,6.177-0.938h19.75L630.924,69.904z"/>
			
				<ellipse transform="matrix(0.231 -0.973 0.973 0.231 403.4075 607.0497)" style="fill:#FFFFFF;" cx="585.727" cy="48.327" rx="12.562" ry="12.562"/>
			<path style="fill:#592E2E;" d="M631.793,194.693l4.125,120l-9,126.893h-64.125l19.125-128.018l-2.625-83.273
				c0,0-6.75-19.476,2.625-35.601H631.793z"/>
			<path style="fill:#122030;" d="M635.918,314.692l-4.125-120h-49.875c-9.375,16.125-2.625,35.601-2.625,35.601l1.183,37.525
				c0.655,20.777,8.297,40.727,21.692,56.624l0,0l28.738,60.917L635.918,314.692z"/>
			
				<polyline style="fill:none;stroke:#122030;stroke-width:1.0305;stroke-linecap:round;stroke-linejoin:round;stroke-miterlimit:10;" points="
				604.793,235.943 602.168,324.442 593.918,431.856 			"/>
			
				<line style="fill:none;stroke:#122030;stroke-width:1.0305;stroke-linecap:round;stroke-linejoin:round;stroke-miterlimit:10;" x1="625.331" y1="431.856" x2="565.612" y2="431.856"/>
			<path style="fill:#592E2E;" d="M710.168,421.942l-78.375-227.25h-49.875c0,0-10.13,28.898,8.641,44.923l4.462,4.677
				l53.272,201.65L710.168,421.942z"/>
			
				<polyline style="fill:none;stroke:#122030;stroke-width:1.0305;stroke-linecap:round;stroke-linejoin:round;stroke-miterlimit:10;" points="
				599.356,201.349 646.043,318.139 676.617,424.563 			"/>
			<polygon style="fill:#122030;" points="613.185,235.943 621.387,200.364 597.909,200.364 			"/>
			<polygon style="fill:#DE5D5D;" points="601.981,226.943 613.185,235.943 616.887,219.068 612.809,216.255 			"/>
			<path style="fill:#DE5D5D;" d="M628.096,68.051l-3.239-4.379c-1.344-7.444-5.849-12.567-5.849-12.567
				c-1.876,14.605-21.521,12.122-21.521,12.122l-8.359,34.373l20.768,2.01V82.592c9.415,1.193,14.361-2.61,15.242-12.818h2.089
				C628.114,69.774,628.623,68.764,628.096,68.051z"/>
			<path style="fill:#122030;" d="M609.897,82.592c0,0-3.404-0.771-6.473-2.432c-1.918-1.037-4.019,0.937-3.148,2.937
				c2.614,6.003,9.621,8.294,9.621,8.294V82.592z"/>
			<path style="fill:#8F4A4A;" d="M583.065,91.986h32.402l-2.518,11.328l14.958,28.153c4.791,9.016,5.438,19.667,1.775,29.197
				l-0.503,1.309l6.269,32.625l1.046,1.477c1.568,2.213-0.015,5.273-2.727,5.273h-55.073c-3.096,0-4.899-3.497-3.103-6.019
				l3.325-4.669l-7.571-45.63c-1.834-11.055,0.185-22.406,5.719-32.15l7.898-13.907L583.065,91.986z"/>
			<path style="fill:#8F4A4A;" d="M610.898,206.399l2.97,5.94c1.373,2.746,1.109,6.027-0.686,8.518l-1.205,1.673
				c-2.563,3.558-6.681,5.666-11.066,5.666l0,0c-2.804,0-5.416-1.423-6.936-3.778l-3.371-5.222L610.898,206.399z"/>
			<path style="fill:#122030;" d="M607.606,129.443l3.75,46.125l7.93,15.144c2.533,4.838-0.976,10.637-6.437,10.637h-25.68
				L607.606,129.443z"/>
			<path style="fill:#122030;" d="M621.392,63.226c0,1.01-0.818,1.828-1.828,1.828c-1.01,0-1.828-0.818-1.828-1.828
				c0-1.01,0.819-1.828,1.828-1.828C620.573,61.398,621.392,62.216,621.392,63.226z"/>
			<path style="fill:none;stroke:#FFFFFF;stroke-width:1.9714;stroke-miterlimit:10;" d="M616.567,59.511
				c0,0,3.485-1.193,5.635,0.379"/>
			<path style="fill:#8F4A4A;" d="M611.042,122.305l-10.033,53.437l12.25,26.116c1.248,2.661,1.083,5.769-0.44,8.282l-4.463,7.364
				c-2.7,4.454-7.53,7.175-12.738,7.175h0c-5.633,0-10.784-3.177-13.311-8.211l-10.745-21.399
				c-4.698-9.355-5.714-20.133-2.848-30.201l13.637-47.907L611.042,122.305z"/>
			
				<path style="fill:none;stroke:#122030;stroke-width:1.0305;stroke-linecap:round;stroke-linejoin:round;stroke-miterlimit:10;" d="
				M582.351,116.962c5.708-16.956,31.494-9.586,28.691,5.344"/>
			
				<line style="fill:none;stroke:#122030;stroke-width:1.0305;stroke-linecap:round;stroke-linejoin:round;stroke-miterlimit:10;" x1="580.88" y1="120.975" x2="573.265" y2="148.88"/>
			
				<line style="fill:none;stroke:#122030;stroke-width:1.0305;stroke-linecap:round;stroke-linejoin:round;stroke-miterlimit:10;" x1="647.852" y1="435.151" x2="705.001" y2="414.115"/>
			<g>
				<path style="fill:#DE5D5D;" d="M604.716,65.754l-4.269-4.644c-2.037-2.216-5.564-2.113-7.469,0.217l0,0
					c-1.748,2.139-1.404,5.295,0.762,7.007l5.437,4.298L604.716,65.754z"/>
				
					<path style="fill:none;stroke:#122030;stroke-width:1.0305;stroke-linecap:round;stroke-linejoin:round;stroke-miterlimit:10;" d="
					M594.354,64.101c0,0,5.092-0.615,8.307,1.97"/>
			</g>
			<path style="fill:#122030;" d="M622.375,74.167c-0.419,1.737-1.76,2.903-2.996,2.605c-1.236-0.298-1.898-1.947-1.48-3.684
				c0.419-1.736,1.76-2.903,2.996-2.605C622.132,70.781,622.794,72.431,622.375,74.167z"/>
			<path style="fill:#B83737;" d="M618.474,72.327c-0.094-0.023-0.187-0.037-0.281-0.056c-0.118,0.256-0.223,0.524-0.293,0.817
				c-0.419,1.737,0.244,3.386,1.48,3.684c1.141,0.275,2.362-0.704,2.874-2.221C621.368,73.525,620.051,72.708,618.474,72.327z"/>
			<path style="fill:#C23E3E;" d="M617.599,68.563c0,1.938-1.571,3.509-3.509,3.509c-1.938,0-3.509-1.571-3.509-3.509
				c0-1.938,1.571-3.509,3.509-3.509C616.029,65.054,617.599,66.625,617.599,68.563z"/>
		</g>
		<g style="clip-path:url(#SVGID_00000088832163541568686570000007456462516496211862_);">
			<g>
				<path style="fill:#FFFFFF;" d="M386.062,431.19l2.813,23.813c0,0,3.508,7.973,4.201,19.065c0.097,1.559-1.161,2.872-2.723,2.872
					h-56.719c-1.301,0-2.279-1.186-2.031-2.463l0.213-1.099c0.68-3.506,3.205-6.37,6.598-7.484l19.156-6.288
					c2.423-0.795,4.504-2.388,5.905-4.52l0,0c1.392-2.118,2.025-4.645,1.795-7.169l-1.521-16.727H386.062z"/>
				<path style="fill:#334A63;" d="M372.522,450.877h-7.381c-0.263,1.492-0.823,2.926-1.666,4.209
					c-1.4,2.131-3.482,3.724-5.905,4.52l-19.156,6.288c-3.393,1.114-5.918,3.977-6.598,7.484l-0.213,1.099
					c-0.248,1.277,0.73,2.463,2.031,2.463h56.719c1.562,0,2.821-1.313,2.723-2.872c-0.693-11.093-4.201-19.065-4.201-19.065
					l-10.875,4.125v-2.772C377.999,453.33,375.547,450.877,372.522,450.877z"/>
				
					<line style="fill:none;stroke:#EBDDC8;stroke-width:0.8978;stroke-linecap:round;stroke-linejoin:round;stroke-miterlimit:10;" x1="334.826" y1="473.377" x2="390.562" y2="473.377"/>
			</g>
			<g>
				<path style="fill:#FFFFFF;" d="M239.437,431.745l-1.589,23.396c0,0,1.69,8.545-0.046,19.522
					c-0.244,1.543-1.758,2.551-3.283,2.211l-55.361-12.335c-1.27-0.283-1.966-1.653-1.447-2.846l0.447-1.027
					c1.426-3.275,4.513-5.52,8.068-5.87l20.065-1.972c2.538-0.249,4.916-1.352,6.746-3.127l2.81-2.725l1.811-20.08L239.437,431.745z
					"/>
				<path style="fill:#334A63;" d="M222.783,447.557l-7.204-1.605c-0.581,1.399-1.439,2.677-2.541,3.746
					c-1.83,1.775-4.208,2.878-6.746,3.127l-20.065,1.972c-3.554,0.349-6.641,2.595-8.068,5.87l-0.447,1.027
					c-0.52,1.193,0.177,2.563,1.447,2.846l55.361,12.335c1.525,0.34,3.039-0.669,3.283-2.211
					c1.736-10.978,0.046-19.522,0.046-19.522l-11.512,1.661l0.603-2.706C227.597,451.142,225.736,448.215,222.783,447.557z"/>
				
					<line style="fill:none;stroke:#EBDDC8;stroke-width:0.8978;stroke-linecap:round;stroke-linejoin:round;stroke-miterlimit:10;" x1="181.097" y1="461.321" x2="235.499" y2="473.442"/>
			</g>
			<path style="fill:#B83737;" d="M279.462,57.728l17.307-3.01c10.958-1.906,21.294,5.712,22.717,16.743l0.763,5.917
				c10.547,4.219,13.5,15.609,12.234,22.781c0,0,10.891,4.214,13.368,17.465c0.311,1.664-0.978,3.207-2.671,3.207h-77.676
				c-1.509,0-2.739-1.229-2.711-2.738c0.079-4.236,1.087-12.248,7.252-15.684c-6.469-12.656,0.281-19.406,0.281-19.406
				s-2.145-3.27-3.059-7.893C265.66,66.971,271.288,59.15,279.462,57.728z"/>
			<path style="fill:none;stroke:#EBDDC8;stroke-miterlimit:10;" d="M321.184,82.07c4.938,5.305,6.278,12.831,5.35,18.089
				c0,0,12.624,4.885,13.781,20.672"/>
			<path style="fill:none;stroke:#EBDDC8;stroke-miterlimit:10;" d="M315.739,82.07c4.938,5.305,6.278,12.831,5.35,18.089
				c0,0,12.624,4.885,13.781,20.672"/>
			<path style="fill:none;stroke:#EBDDC8;stroke-miterlimit:10;" d="M310.294,82.07c4.938,5.305,6.278,12.831,5.35,18.089
				c0,0,12.624,4.885,13.781,20.672"/>
			<path style="fill:none;stroke:#EBDDC8;stroke-miterlimit:10;" d="M268.159,120.831c0,0-1.406-13.641,7.172-18.422
				c-3.346-6.546-3.155-11.512-2.191-14.782"/>
			<path style="fill:none;stroke:#EBDDC8;stroke-miterlimit:10;" d="M274.003,120.831c0,0-1.406-13.641,7.172-18.422
				c-3.346-6.546-3.155-11.512-2.191-14.782"/>
			<path style="fill:none;stroke:#EBDDC8;stroke-miterlimit:10;" d="M279.847,120.831c0,0-1.406-13.641,7.172-18.422
				c-3.346-6.546-3.155-11.512-2.191-14.782"/>
			<g>
				<path style="fill:#53694C;" d="M254.028,134.389l-0.014-0.013c0.122-0.368-0.063-0.84-0.629-1.364l-22.167-20.547
					c-1.271-1.178-3.888-2.145-5.846-2.16l-4.685-0.035c-0.993-0.007-1.622,0.233-1.838,0.624l-0.002,0l-1.211,2.097l9.312,6.342
					l14.662,13.591c1.271,1.178,3.888,2.145,5.846,2.159l2.648,0.02l2.503,1.705l1.317-2.244c0.027-0.037,0.049-0.075,0.067-0.115
					L254.028,134.389z"/>
				<path style="fill:#122030;" d="M250.908,137.251l-4.685-0.035c-1.958-0.015-4.575-0.982-5.846-2.16l-22.167-20.547
					c-1.271-1.178-0.714-2.121,1.244-2.106l4.685,0.035c1.958,0.015,4.575,0.982,5.846,2.16l22.167,20.547
					C253.423,136.323,252.866,137.266,250.908,137.251z"/>
			</g>
			<path style="fill:#C96F65;" d="M258.234,159.081l-16.312-19.617c0,0,1.547-6.891,0.633-10.687l2.602-7.945
				c0,0-0.211-1.969-2.391-1.898c-0.141-2.953-1.828-3.094-3.305-2.18c0.07-3.797-1.828-3.656-3.164-2.461
				c-1.336,1.195-3.516,5.273-3.516,5.273l-1.641,6.797l-0.398-7.851l4.132-5.296c0.484-0.62,0.405-1.51-0.181-2.035l0,0
				c-0.577-0.517-1.453-0.508-2.019,0.021l-4.461,4.164c-1.269,1.184-1.988,2.842-1.985,4.577l0.014,9.749l2.461,14.695
				c0,0,15.75,35.508,20.531,47.039c4.781,11.531,22.461,14.625,29.16,1.969c6.699-12.656,16.543-34.312,16.543-34.312H258.234z"/>
			<path style="fill:#334A63;" d="M273.562,187.628l-1.304,11.375c0,0-57.758,137.981-67.133,238.374h200.625
				c0,0-21.302-160.508-69.487-236.848l-4.913-12.902H273.562z"/>
			<path style="fill:#122030;" d="M272.863,193.723l69.518,17.2c-1.99-3.609-4.028-7.083-6.119-10.394l-4.913-12.902h-57.787
				L272.863,193.723z"/>
			<polygon style="fill:#122030;" points="262.517,163.852 282.13,171.811 283.687,159.081 258.234,159.081 			"/>
			<path style="fill:#53694C;" d="M313.312,100.909l14.648,5.946c6.834,2.774,12.131,8.373,14.523,15.35l13.298,38.798h-22.875
				l2.165,23.416c0.348,3.76-2.612,7.006-6.388,7.006H270.75c-6.469,0-7.031-9.703,1.828-9.844l3.656-22.5h-18l11.739-33.129
				c3.602-10.164,11.297-18.355,21.218-22.582l2.402-1.024L313.312,100.909z"/>
			
				<path style="fill:none;stroke:#122030;stroke-width:0.9499;stroke-linecap:round;stroke-linejoin:round;stroke-miterlimit:10;" d="
				M317.437,159.925l-4.674-28.147c-1.425-8.579,3.584-17.015,11.874-19.645c1.92-0.609,3.974-0.965,6.113-0.911"/>
			
				<path style="fill:none;stroke:#122030;stroke-width:0.9499;stroke-linecap:round;stroke-linejoin:round;stroke-miterlimit:10;" d="
				M275.625,156.831l-1.386-3.316c-3.319-7.938-2.426-17.012,2.376-24.151l7.916-11.768"/>
			
				<polyline style="fill:none;stroke:#122030;stroke-width:0.9499;stroke-linecap:round;stroke-linejoin:round;stroke-miterlimit:10;" points="
				238.781,117.878 236.466,122.523 235.265,129.644 			"/>
			
				<polyline style="fill:none;stroke:#122030;stroke-width:0.9499;stroke-linecap:round;stroke-linejoin:round;stroke-miterlimit:10;" points="
				242.069,120.531 239.692,125.063 238.781,131.144 			"/>
			
				<line style="fill:none;stroke:#122030;stroke-width:0.9499;stroke-linecap:round;stroke-linejoin:round;stroke-miterlimit:10;" x1="258.234" y1="159.081" x2="268.922" y2="170.987"/>
			<g>
				
					<path style="fill:none;stroke:#122030;stroke-width:1.0271;stroke-linecap:round;stroke-linejoin:round;stroke-miterlimit:10;" d="
					M379.104,435.785c0,0-15.644-159.436-51.03-235.265"/>
				
					<path style="fill:none;stroke:#122030;stroke-width:1.0271;stroke-linecap:round;stroke-linejoin:round;stroke-miterlimit:10;" d="
					M281.071,199.003c0,0-42.416,137.059-49.301,236.782"/>
			</g>
			<g>
				
					<path style="fill:none;stroke:#122030;stroke-width:1.0271;stroke-linecap:round;stroke-linejoin:round;stroke-miterlimit:10;" d="
					M350.399,435.785c0,0-9.548-159.436-31.145-235.265"/>
				
					<path style="fill:none;stroke:#122030;stroke-width:1.0271;stroke-linecap:round;stroke-linejoin:round;stroke-miterlimit:10;" d="
					M290.565,199.003c0,0-25.888,137.059-30.09,236.782"/>
			</g>
			<g>
				
					<path style="fill:none;stroke:#122030;stroke-width:0.8978;stroke-linecap:round;stroke-linejoin:round;stroke-miterlimit:10;" d="
					M320.479,435.785c0,0-3.194-159.436-10.42-235.265"/>
				
					<path style="fill:none;stroke:#122030;stroke-width:0.8978;stroke-linecap:round;stroke-linejoin:round;stroke-miterlimit:10;" d="
					M300.462,199.003c0,0-8.661,137.059-10.067,236.782"/>
			</g>
			
				<line style="fill:none;stroke:#122030;stroke-width:1.0305;stroke-linecap:round;stroke-linejoin:round;stroke-miterlimit:10;" x1="274.687" y1="199.3" x2="333.046" y2="199.3"/>
			<path style="fill:#C96F65;" d="M285.562,63.503c0,0-3.469,12.094,17.063,15.469c0,0-0.37,7.69,5.326,10.921
				c1.648,0.935,2.882,2.46,3.409,4.28l1.952,6.737c0,0-8.719,3.844-19.5,3.844l-0.844-9.281c-8.062,3.187-13.5-3.094-14.062-9.75
				l-2.252-0.435c-0.881-0.17-1.295-1.192-0.78-1.927l3.3-4.711C279.174,78.649,276.375,66.409,285.562,63.503z"/>
			<path style="fill:#A1493D;" d="M294.48,83.682c0,1.894-1.535,3.429-3.429,3.429c-1.894,0-3.429-1.535-3.429-3.429
				c0-1.894,1.535-3.429,3.429-3.429C292.945,80.253,294.48,81.788,294.48,83.682z"/>
			<path style="fill:#C96F65;" d="M308.301,74.4c1.982,2.21,1.571,5.81-0.917,8.042c-2.488,2.232-6.112,2.25-8.094,0.041
				c-1.982-2.21-1.571-5.81,0.917-8.042C302.695,72.208,306.319,72.19,308.301,74.4z"/>
			
				<path style="fill:none;stroke:#122030;stroke-width:1.0678;stroke-linecap:round;stroke-linejoin:round;stroke-miterlimit:10;" d="
				M300.843,81.386c0,0,1.371-5.555,5.66-5.836"/>
			<path style="fill:#122030;" d="M285.248,78.379c0,1.035-0.839,1.874-1.874,1.874s-1.874-0.839-1.874-1.874
				c0-1.035,0.839-1.874,1.874-1.874S285.248,77.343,285.248,78.379z"/>
			
				<path style="fill:none;stroke:#122030;stroke-width:1.0305;stroke-linecap:round;stroke-linejoin:round;stroke-miterlimit:10;" d="
				M282.999,87.499c0,0,3.873,0.379,6.997-3.371"/>
			<path style="fill:none;stroke:#B83737;stroke-width:1.9714;stroke-miterlimit:10;" d="M280.781,74.472
				c0,0,2.719-1.406,5.953,0.375"/>
			<path style="fill:#122030;" d="M300.95,91.762c-0.106-1.083-1.494-1.512-2.148-0.643c-1.874,2.49-3.955,3.652-5.833,4.352
				l0.692,7.616C299.632,101.771,301.391,96.261,300.95,91.762z"/>
			<g>
				<path style="fill:#B83737;" d="M389.384,379.025H297.18c-6.55,0-11.586-5.795-10.671-12.281l7.775-55.145
					c0.438-3.107,3.097-5.417,6.235-5.417h85.527c3.138,0,5.797,2.31,6.235,5.417l7.775,55.145
					C400.97,373.23,395.935,379.025,389.384,379.025z"/>
				
					<path style="fill:none;stroke:#EBDDC8;stroke-width:1.0305;stroke-linecap:round;stroke-linejoin:round;stroke-miterlimit:10;" d="
					M307.461,309.69l4.674,27.706c1.258,7.454,7.712,12.911,15.272,12.911h31.751c7.559,0,14.014-5.457,15.272-12.911l4.674-27.706"
					/>
				
					<path style="fill:none;stroke:#EBDDC8;stroke-width:1.0305;stroke-linecap:round;stroke-linejoin:round;stroke-miterlimit:10;" d="
					M353.59,341.626h-20.616c-1.282,0-2.321-1.039-2.321-2.321l0,0c0-1.282,1.039-2.321,2.321-2.321h20.616
					c1.282,0,2.321,1.039,2.321,2.321l0,0C355.911,340.586,354.872,341.626,353.59,341.626z"/>
				<path style="fill:none;stroke:#B83737;stroke-width:3;stroke-linecap:round;stroke-linejoin:round;stroke-miterlimit:10;" d="
					M313.048,310.822h60.469c0,0-6.047-40.654-30.234-40.654C319.095,270.168,313.048,310.822,313.048,310.822z"/>
			</g>
			<g>
				<path style="fill:#C96F65;" d="M336.093,262.44l-18.281-101.437h26.156l3.551,20.016c0,0,5.918,10.406,4.934,31.359
					c-0.984,20.953-4.934,49.5-4.934,49.5s3.668,3.938,4.09,10.687c2.672,1.828,3.938,8.016-2.25,8.016h-11.065
					c-3.689,0-6.354-3.528-5.345-7.077L336.093,262.44z"/>
				
					<path style="fill:none;stroke:#122030;stroke-width:0.9499;stroke-linecap:round;stroke-linejoin:round;stroke-miterlimit:10;" d="
					M349.183,278.12c0,0,2.566-2.461,2.426-5.555"/>
				<path style="fill:#122030;" d="M343.968,161.003h-26.156l0.805,4.468l20.461,5.542c3.257,0.882,6.324-1.924,5.735-5.246
					L343.968,161.003z"/>
			</g>
		</g>
		<g style="clip-path:url(#SVGID_00000088832163541568686570000007456462516496211862_);">
			<path style="fill:#53694C;" d="M555.862,82.447c0-4.305-3.49-7.795-7.795-7.795c-0.65,0-1.277,0.088-1.881,0.238
				c-2.016-3.577-5.844-5.998-10.243-5.998c-1.663,0-3.243,0.348-4.676,0.972c-2.058-2.536-5.197-4.159-8.717-4.159
				c-4.255,0-7.956,2.368-9.86,5.857c-0.065-0.002-0.129-0.01-0.194-0.01c-2.69,0-5.061,1.362-6.462,3.435
				c-0.139-0.007-0.277-0.021-0.418-0.021c-4.863,0-8.805,3.942-8.805,8.805c0,2.746,1.258,5.198,3.228,6.813
				c-1.034,1.323-1.656,2.983-1.656,4.792c0,3.339,2.103,6.178,5.053,7.289c-0.086,0.493-0.139,0.998-0.139,1.516
				c0,4.863,3.942,8.805,8.805,8.805c3.248,0,6.077-1.763,7.604-4.38c6.963,0.003,18.741-1.425,24.288-10.402l0-0.001
				c1.186,0.73,2.578,1.158,4.073,1.158c4.305,0,7.795-3.49,7.795-7.795c0-1.705-0.554-3.277-1.482-4.56
				C555.308,85.724,555.862,84.152,555.862,82.447z"/>
			<polygon style="fill:#DE5D5D;" points="551.378,233.322 569.648,232.612 563.487,281.239 			"/>
			<g>
				<path style="fill:#DE5D5D;" d="M585.29,443.89l2.828,9.014c0,0,13.609,3.535,28.808,14.846v4.033
					c0,2.848-2.309,5.157-5.157,5.157h-48.817c-3.198,0-5.629-2.875-5.085-6.026c0.694-4.023,2.14-9.755,5.156-16.242l-2.651-10.781
					H585.29z"/>
				<path style="fill:#334A63;" d="M568.57,454.671h-5.549c-3.059,6.582-4.503,12.385-5.185,16.417
					c-0.518,3.062,1.832,5.852,4.938,5.852h49.144c2.766,0,5.008-2.242,5.008-5.008v-4.182
					c-15.199-11.311-28.808-14.846-28.808-14.846C567.822,466.523,568.57,454.671,568.57,454.671z"/>
				
					<line style="fill:none;stroke:#EBDDC8;stroke-width:1.0305;stroke-linecap:round;stroke-linejoin:round;stroke-miterlimit:10;" x1="611.146" y1="467.749" x2="560.086" y2="467.749"/>
				<path style="fill:#122030;" d="M568.57,454.671h-5.493l-3.381-1.061c-1.388-0.436-1.723-2.247-0.582-3.15l0,0
					c0.586-0.464,1.397-0.521,2.042-0.142L568.57,454.671z"/>
			</g>
			<g>
				<path style="fill:#DE5D5D;" d="M485.488,433.846l-4.261,11.468c0,0,11.261,8.419,21.054,24.638l-1.525,3.733
					c-1.077,2.637-4.088,3.901-6.725,2.824l-45.192-18.462c-2.961-1.21-4.124-4.79-2.428-7.502
					c2.164-3.462,5.67-8.221,10.915-13.086l5.093-13.038L485.488,433.846z"/>
				<path style="fill:#334A63;" d="M462.462,439.558l-5.137-2.098c-5.321,4.936-8.853,9.762-11.009,13.236
					c-1.638,2.639-0.517,6.111,2.358,7.285l45.494,18.586c2.56,1.046,5.484-0.182,6.53-2.742l1.582-3.872
					c-9.793-16.219-21.054-24.638-21.054-24.638C457.287,450.247,462.462,439.558,462.462,439.558z"/>
				
					<line style="fill:none;stroke:#EBDDC8;stroke-width:1.0305;stroke-linecap:round;stroke-linejoin:round;stroke-miterlimit:10;" x1="496.887" y1="467.749" x2="449.662" y2="448.456"/>
				<path style="fill:#122030;" d="M462.462,439.558l-5.086-2.077l-2.729-2.261c-1.12-0.928-0.745-2.731,0.652-3.136l0,0
					c0.718-0.208,1.491,0.047,1.944,0.641L462.462,439.558z"/>
			</g>
			<path style="fill:#FF780A;" d="M560.039,262.003l33.375,186.187h-39c0,0-8.625-15.844-4.875-28.828
				c-9.75-11.109-5.25-30.234-5.25-30.234s-12.375-13.875-7.5-29.625l-31.875-97.5H560.039z"/>
			
				<line style="fill:none;stroke:#EBDDC8;stroke-width:1.0305;stroke-linecap:round;stroke-linejoin:round;stroke-miterlimit:10;" x1="532.101" y1="269.878" x2="571.851" y2="440.878"/>
			<path style="fill:#122030;" d="M560.039,262.003h-55.125l31.875,97.5c0,0,11.593-13.957,11.693-38.76
				c0.037-9.107,2.779-18.001,7.923-25.517l0,0c4.87-7.115,6.746-15.86,5.225-24.347L560.039,262.003z"/>
			<path style="fill:#FF780A;" d="M533.226,257.077l1.042,91.876c0.054,4.772-1.076,9.482-3.288,13.71l-40.103,76.641
				l-37.063-13.041c0,0,6.761-17.502,13.504-23.679c-1.493-13.384,10.408-26.246,10.408-26.246s-2.438-17.866,11.906-31.648
				l-12.825-87.613H533.226z"/>
			
				<polyline style="fill:none;stroke:#EBDDC8;stroke-width:1.0305;stroke-linecap:round;stroke-linejoin:round;stroke-miterlimit:10;" points="
				497.507,284.503 503.414,348.19 474.548,425.241 			"/>
			
				<line style="fill:none;stroke:#EBDDC8;stroke-width:1.0305;stroke-linecap:round;stroke-linejoin:round;stroke-miterlimit:10;" x1="458.695" y1="419.362" x2="492.445" y2="431.878"/>
			
				<line style="fill:none;stroke:#EBDDC8;stroke-width:1.0305;stroke-linecap:round;stroke-linejoin:round;stroke-miterlimit:10;" x1="553.851" y1="440.878" x2="589.851" y2="440.878"/>
			
				<line style="fill:none;stroke:#EBDDC8;stroke-width:1.0305;stroke-linecap:round;stroke-linejoin:round;stroke-miterlimit:10;" x1="492.023" y1="348.19" x2="517.617" y2="348.19"/>
			<path style="fill:#334A63;" d="M532.851,125.409l17.838,12.25c8.635,5.93,14.106,15.464,14.87,25.911l3.48,47.62l6,23.438
				l-15.563,1.688l5.767,24.88c0.887,3.828,0.737,7.862-0.668,11.531c-1.799,4.697-5.796,9.637-14.661,9.338
				c-16.687-0.563-27.656-20.719-39.328-23.297c-9.322-2.059-18.434,13.911-28.197,18.802c-3.527,1.767-7.745-0.503-8.284-4.411
				l-6.786-49.219l37.408-88.148L532.851,125.409z"/>
			<path style="fill:#122030;" d="M510.67,209.147l1.954-50.832l-25.342,18.582l-19.964,47.043l6.786,49.219
				c0.539,3.908,4.757,6.177,8.284,4.411c9.763-4.891,18.875-20.861,28.197-18.802c3.058,0.676,6.069,2.558,9.146,4.978
				c5.24,4.12,12.359-1.906,9.155-7.751l-12.581-22.947C512.297,225.739,510.349,217.478,510.67,209.147z"/>
			<path style="fill:#122030;" d="M445.289,234.628c-0.363,5.623,37.172,1.5,44.062,4.875l-10.125-20.672
				C479.226,218.831,446.086,222.3,445.289,234.628z"/>
			
				<polyline style="fill:none;stroke:#122030;stroke-width:1.0305;stroke-linecap:round;stroke-linejoin:round;stroke-miterlimit:10;" points="
				560.039,160.941 553.424,210.181 559.476,236.316 			"/>
			<path style="fill:#DE5D5D;" d="M500.882,225.722l9.703,33.047c0,0,1.266,17.156-13.078,25.734v-11.848l-22.641-43.98
				L500.882,225.722z"/>
			<path style="fill:#334A63;" d="M510.351,125.409l-22.395,11.226c-10.047,5.036-17.872,13.622-21.922,24.106
				c-7.07,18.301-17.598,48.594-20.745,73.887c1.742-10.954,33.797,5.437,55.594-8.906l-3.656-13.406l30.188-76.523L510.351,125.409
				z"/>
			
				<path style="fill:none;stroke:#122030;stroke-width:1.0305;stroke-linecap:round;stroke-linejoin:round;stroke-miterlimit:10;" d="
				M486.351,143.48c10.688,0,22.688,14.648,22.688,28.523"/>
			<path style="fill:#DE5D5D;" d="M547.669,103.03l-3.194-4.867c-0.248-2.615-0.215-5.339,0.508-7.927c0,0-4.002-3.317-12.024-3.082
				c-0.313,2.253-2.26,4.08-4.815,4.625c-0.252,4.202-1.986,10.461-9.705,12.782c0,0,0.168,5.899-5.393,8.174v11.292l-2.865,1.433
				c0,0,6.067,5.477,15.421,14.578c9.354,9.101,20.055,5.225,9.269-9.859l0.421-10.196c5.899-0.337,12.13-4.493,10.617-13.23
				c-0.056-0.325-0.119-0.665-0.185-1.011h0.48C547.598,105.741,548.433,104.194,547.669,103.03z"/>
			<path style="fill:#C23E3E;" d="M534.736,106.48c0,2.022-1.639,3.661-3.661,3.661c-2.022,0-3.661-1.639-3.661-3.661
				c0-2.022,1.639-3.661,3.661-3.661C533.097,102.819,534.736,104.459,534.736,106.48z"/>
			<g>
				
					<line style="fill:none;stroke:#EBDDC8;stroke-width:1.0305;stroke-linecap:round;stroke-linejoin:round;stroke-miterlimit:10;" x1="518.893" y1="96.999" x2="535.206" y2="96.999"/>
				
					<path style="fill:none;stroke:#EBDDC8;stroke-width:1.0305;stroke-linecap:round;stroke-linejoin:round;stroke-miterlimit:10;" d="
					M545.34,96.802c0,3.857-2.269,6.984-5.067,6.984c-2.799,0-5.067-3.127-5.067-6.984c0-3.857,2.269-6.983,5.067-6.983
					C543.071,89.819,545.34,92.946,545.34,96.802z"/>
			</g>
			<path style="fill:#122030;" d="M541.064,97.525c0,1.187-0.962,2.149-2.149,2.149c-1.187,0-2.149-0.962-2.149-2.149
				c0-1.187,0.962-2.149,2.149-2.149C540.102,95.377,541.064,96.339,541.064,97.525z"/>
			<g>
				
					<path style="fill:none;stroke:#122030;stroke-width:1.0305;stroke-linecap:round;stroke-linejoin:round;stroke-miterlimit:10;" d="
					M541.317,109.576c0,0-4.845,0.522-8.3-2.604"/>
				
					<line style="fill:none;stroke:#122030;stroke-width:1.0305;stroke-linecap:round;stroke-linejoin:round;stroke-miterlimit:10;" x1="533.775" y1="105.615" x2="532.047" y2="108.29"/>
			</g>
			<path style="fill:#122030;" d="M535.292,119.982c-4.187,0.301-8.338-0.77-11.155-3.313c-0.965-0.871-2.464-0.07-2.234,1.21
				c0.687,3.832,3.425,9.104,13.044,10.469L535.292,119.982z"/>
			
				<line style="fill:none;stroke:#122030;stroke-width:1.0305;stroke-linecap:round;stroke-linejoin:round;stroke-miterlimit:10;" x1="534.813" y1="131.438" x2="534.66" y2="134.792"/>
			<path style="fill:#DE5D5D;" d="M526.83,100.73l-8.681-6.816c-2.013-1.58-4.945-1.118-6.373,1.006l-0.846,1.257
				c-1.371,2.038-0.809,4.805,1.249,6.146l4.972,3.242c2.147,1.4,5.004,0.948,6.616-1.045L526.83,100.73z"/>
			
				<path style="fill:none;stroke:#122030;stroke-width:1.0305;stroke-linecap:round;stroke-linejoin:round;stroke-miterlimit:10;" d="
				M513.424,99.103l1.092-0.68c1.308-0.814,3.009-0.593,4.065,0.529l3.639,3.867"/>
			
				<path style="fill:none;stroke:#EBDDC8;stroke-width:1.0305;stroke-linecap:round;stroke-linejoin:round;stroke-miterlimit:10;" d="
				M448.763,225.749c4.641-1.008,15.5,0.551,24.852,1.535c10.688,1.125,20.713-2.531,24.888-4.969"/>
			
				<line style="fill:none;stroke:#EBDDC8;stroke-width:1.0305;stroke-linecap:round;stroke-linejoin:round;stroke-miterlimit:10;" x1="570.552" y1="229.323" x2="560.039" y2="231.151"/>
		</g>
		<g style="clip-path:url(#SVGID_00000088832163541568686570000007456462516496211862_);">
			<path style="fill:#53694C;" d="M28.015,226.721l-6,87.094l-46.875,53.25l36.75,30.265l43.597-44.975
				c13.562-13.99,22.296-31.95,24.926-51.256l10.134-74.377H28.015z"/>
			<polygon style="fill:#122030;" points="-12.505,353.029 -22.132,363.971 14.29,394.487 21.809,387.098 			"/>
			
				<path style="fill:none;stroke:#122030;stroke-width:0.9499;stroke-linecap:round;stroke-linejoin:round;stroke-miterlimit:10;" d="
				M58.671,229.253l-11.664,80.201c-1.016,6.988-3.959,13.554-8.499,18.962l-43.651,52.004"/>
			
				<line style="fill:none;stroke:#122030;stroke-width:0.9499;stroke-linecap:round;stroke-linejoin:round;stroke-miterlimit:10;" x1="31.39" y1="313.768" x2="59.796" y2="315.69"/>
			
				<line style="fill:none;stroke:#122030;stroke-width:0.9499;stroke-linecap:round;stroke-linejoin:round;stroke-miterlimit:10;" x1="32.843" y1="317.284" x2="53.468" y2="327.878"/>
			<path style="fill:#122030;" d="M80.413,301.099l10.134-74.377H28.015l-3.136,45.521c-0.253,3.673,2.205,6.984,5.794,7.804l0,0
				c3.118,0.713,5.789,2.709,7.357,5.497l24.529,43.635c2.077,3.695,7.486,3.605,9.353-0.201
				C76.193,320.253,79.085,310.85,80.413,301.099z"/>
			<path style="fill:#53694C;" d="M100.577,226.721l22.883,77.149c4.388,14.793,5.77,30.314,4.066,45.65l-8.106,72.951H64.015
				l8.438-95.906l-42.469-99.844H100.577z"/>
			
				<path style="fill:none;stroke:#122030;stroke-width:0.9499;stroke-linecap:round;stroke-linejoin:round;stroke-miterlimit:10;" d="
				M62.645,219.915l33.639,96.52c1.875,5.38,2.587,11.096,2.089,16.771l-7.826,89.265"/>
			
				<line style="fill:none;stroke:#122030;stroke-width:0.9499;stroke-linecap:round;stroke-linejoin:round;stroke-miterlimit:10;" x1="81.265" y1="324.596" x2="107.515" y2="315.69"/>
			
				<line style="fill:none;stroke:#122030;stroke-width:0.9499;stroke-linecap:round;stroke-linejoin:round;stroke-miterlimit:10;" x1="87.64" y1="327.878" x2="111.64" y2="327.878"/>
			
				<path style="fill:none;stroke:#122030;stroke-width:0.9499;stroke-linecap:round;stroke-linejoin:round;stroke-miterlimit:10;" d="
				M83.843,226.721c0,0,9.756,22.842-9.185,27.663"/>
			<g>
				<path style="fill:#ED8477;" d="M117.077,425.94l-2.063,25.313l30.447,13.623c4.035,1.625,6.678,5.539,6.678,9.889v1.8H83.63
					c-1.58,0-2.742-1.485-2.347-3.015c1.28-4.965,4.429-14.949,10.294-21.36l0.563-26.25H117.077z"/>
				<path style="fill:#53694C;" d="M81.283,473.55c-0.395,1.53,0.767,3.015,2.347,3.015h68.509v-1.8
					c0-1.334-0.251-2.626-0.712-3.825H82.01C81.724,471.903,81.479,472.79,81.283,473.55z"/>
				<path style="fill:#122030;" d="M151.852,472.314c-0.784-3.322-3.133-6.127-6.391-7.439l-28.728-12.853l1.562-5.832h-8.208
					c-3.47,0-6.283,2.813-6.283,6.283v5.557l-12.228-5.84c-5.416,5.92-8.511,14.876-9.962,20.124H151.852z"/>
			</g>
			<g>
				<path style="fill:#ED8477;" d="M-0.86,384.545l-25.357,22.085l0.931,33.342c0.286,4.341-2.094,8.42-6.014,10.307l-1.622,0.781
					l-29.715-61.73c-0.686-1.424,0.148-3.115,1.698-3.423c5.029-1,15.39-2.493,23.711,0.011l17.805-19.229L-0.86,384.545z"/>
				<path style="fill:#53694C;" d="M-60.939,385.908c-1.55,0.308-2.384,1.999-1.699,3.423l29.715,61.73l1.622-0.781
					c1.202-0.579,2.257-1.365,3.137-2.3l-30.109-62.548C-59.264,385.591-60.17,385.755-60.939,385.908z"/>
				<path style="fill:#122030;" d="M-29.217,448.958c2.653-2.147,4.162-5.48,3.931-8.985l-0.879-31.46l5.932-1.122l-3.56-7.396
					c-1.505-3.127-5.26-4.441-8.386-2.936l-5.007,2.41l-0.042-13.55c-7.683-2.312-17.096-1.216-22.454-0.248L-29.217,448.958z"/>
			</g>
			<polygon style="fill:#122030;" points="64.015,422.471 119.421,422.471 120.469,413.034 65.287,408.008 			"/>
			<polygon style="fill:#334A63;" points="120.314,434.19 58.671,434.19 60.97,415.065 122.423,415.065 			"/>
			<polygon style="fill:#334A63;" points="9.747,404.893 -33.699,370.124 -20.823,355.948 23.412,391.347 			"/>
			<path style="fill:#FF780A;" d="M39.968,115.628l-1.715-12.803c-1.562-11.661,10.106-20.69,20.963-16.158
				c13.58,5.669,30.781,15.026,45.866,29.894c3.148,3.103,2.51,8.355-1.241,10.695l-5.03,3.138l5.001,85.078
				c0,0,17.859,16.875-1.266,16.875H26.46c-3.88,0-6.815-3.509-6.129-7.328L39.968,115.628z"/>
			<path style="fill:#122030;" d="M76.908,105.958l5.915-7.001c-3.625-2.307-7.216-4.371-10.708-6.211
				c-0.722-0.381-1.568,0.291-1.336,1.074c0.833,2.813,0.775,6.952,0.273,8.486L76.908,105.958z"/>
			<path style="fill:#122030;" d="M65.809,151.628l-34.466,12.046L20.33,225.019c-0.686,3.819,2.25,7.328,6.129,7.328h68.68
				L62.158,193.45c-6.915-8.155-8.151-19.704-3.117-29.137L65.809,151.628z"/>
			
				<path style="fill:none;stroke:#122030;stroke-width:0.9499;stroke-linecap:round;stroke-linejoin:round;stroke-miterlimit:10;" d="
				M45.077,109.253c0,0,16.169-10.517,30.328,5.141c11.522,12.741,1.502,30.109,1.502,30.109"/>
			<g>
				<path style="fill:#A7B9CC;" d="M100.112,169.826l-5.013,3.808l-107.548,50.964l-6.122,1.468
					c-12.665,3.037-18.508,14.837-13.05,26.355v0c5.458,11.518,20.15,18.393,32.816,15.356l6.122-1.468l107.548-50.964l5.013-3.808
					c10.371-7.879,14.354-23.604,8.896-35.122l0,0C123.315,164.897,110.483,161.947,100.112,169.826z"/>
				<path style="fill:#334A63;" d="M101.267,172.263l-5.013,3.808l-107.548,50.964l-6.122,1.468
					c-12.665,3.037-18.508,14.837-13.05,26.355l0,0c5.458,11.518,20.15,18.393,32.816,15.356l6.122-1.468l107.548-50.964
					l5.013-3.808c10.371-7.879,14.354-23.604,8.896-35.122v0C124.47,167.334,111.638,164.384,101.267,172.263z"/>
				<g>
					<g>
						<path style="fill:#A7B9CC;" d="M117.211,202.917l-14.422,6.834c-3.411,1.617-7.488,0.162-9.104-3.25l0,0
							c-1.617-3.411-0.162-7.488,3.25-9.104l14.423-6.834c3.411-1.617,7.488-0.162,9.104,3.25l0,0
							C122.077,197.224,120.622,201.3,117.211,202.917z"/>
						<g>
							<g>
								<path style="fill:#122030;" d="M98.986,200.796c0.243,0.512,0.024,1.125-0.488,1.368c-0.512,0.243-1.125,0.024-1.368-0.488
									c-0.243-0.512-0.024-1.125,0.488-1.368C98.131,200.065,98.743,200.284,98.986,200.796z"/>
								<path style="fill:#122030;" d="M101.457,206.01c0.243,0.512,0.024,1.125-0.488,1.368c-0.512,0.243-1.125,0.024-1.368-0.488
									c-0.243-0.512-0.024-1.125,0.488-1.368C100.602,205.279,101.214,205.498,101.457,206.01z"/>
							</g>
							<g>
								<path style="fill:#122030;" d="M114.543,193.424c0.243,0.512,0.024,1.125-0.488,1.368c-0.512,0.243-1.125,0.024-1.368-0.488
									c-0.243-0.512-0.024-1.125,0.488-1.368C113.688,192.693,114.301,192.912,114.543,193.424z"/>
								<path style="fill:#122030;" d="M117.014,198.638c0.243,0.512,0.024,1.125-0.488,1.368c-0.513,0.243-1.125,0.024-1.368-0.488
									c-0.243-0.512-0.024-1.125,0.488-1.368C116.159,197.907,116.771,198.126,117.014,198.638z"/>
							</g>
						</g>
						<g>
							<path style="fill:#122030;" d="M104.86,218.267l1.828,3.857c1.143,2.412,6.016,2.497,10.884,0.19
								c4.868-2.307,7.889-6.133,6.746-8.544l-1.828-3.857L104.86,218.267z"/>
							<path style="fill:#A7B9CC;" d="M122.49,209.913c1.143,2.412-1.877,6.237-6.746,8.544c-4.868,2.307-9.742,2.222-10.885-0.19
								c-1.143-2.412,1.877-6.237,6.746-8.544C116.474,207.416,121.347,207.501,122.49,209.913z"/>
							<path style="fill:#122030;" d="M96.958,188.337l12.74,26.884c0.478,1.008,2.515,1.044,4.551,0.079
								c2.035-0.965,3.298-2.564,2.82-3.572l-12.74-26.884L96.958,188.337z"/>
						</g>
						<path style="fill:#A7B9CC;" d="M90.779,188.553l1.828,3.857c1.143,2.412,6.016,2.497,10.885,0.19
							c4.868-2.307,7.889-6.133,6.746-8.544l-1.828-3.857L90.779,188.553z"/>
						<path style="fill:#122030;" d="M108.409,180.199c1.143,2.412-1.877,6.237-6.746,8.544c-4.868,2.307-9.742,2.222-10.885-0.19
							c-1.143-2.412,1.877-6.237,6.746-8.544C102.393,177.702,107.266,177.787,108.409,180.199z"/>
						<path style="fill:#A7B9CC;" d="M102.999,182.762c0.407,0.858-0.788,2.277-2.669,3.168c-1.881,0.891-3.735,0.918-4.142,0.06
							c-0.407-0.858,0.788-2.277,2.669-3.168C100.738,181.931,102.593,181.904,102.999,182.762z"/>
					</g>
					<g>
						<path style="fill:#A7B9CC;" d="M10.599,253.346l-14.422,6.834c-3.411,1.617-7.488,0.162-9.104-3.25l0,0
							c-1.617-3.411-0.162-7.488,3.25-9.104l14.422-6.834c3.411-1.617,7.488-0.162,9.104,3.25l0,0
							C15.466,247.653,14.011,251.729,10.599,253.346z"/>
						<g>
							<g>
								<path style="fill:#122030;" d="M-7.626,251.225c0.243,0.513,0.024,1.125-0.488,1.368c-0.512,0.243-1.125,0.024-1.368-0.488
									c-0.243-0.512-0.024-1.125,0.488-1.368C-8.481,250.495-7.868,250.713-7.626,251.225z"/>
								<path style="fill:#122030;" d="M-5.155,256.44c0.243,0.512,0.024,1.125-0.488,1.368c-0.512,0.243-1.125,0.024-1.368-0.488
									c-0.243-0.513-0.024-1.125,0.488-1.368C-6.01,255.708-5.398,255.927-5.155,256.44z"/>
							</g>
							<g>
								<path style="fill:#122030;" d="M7.932,243.853c0.243,0.513,0.024,1.125-0.488,1.368c-0.512,0.243-1.125,0.024-1.368-0.488
									c-0.243-0.512-0.024-1.125,0.488-1.368C7.077,243.122,7.689,243.341,7.932,243.853z"/>
								<path style="fill:#122030;" d="M10.403,249.067c0.243,0.513,0.024,1.125-0.488,1.368c-0.513,0.243-1.125,0.024-1.368-0.488
									c-0.243-0.512-0.024-1.125,0.488-1.368C9.548,248.336,10.16,248.555,10.403,249.067z"/>
							</g>
						</g>
						<g>
							<path style="fill:#122030;" d="M-1.752,268.696l1.828,3.857c1.143,2.412,6.016,2.497,10.885,0.19
								c4.868-2.307,7.889-6.133,6.746-8.544l-1.828-3.857L-1.752,268.696z"/>
							<path style="fill:#A7B9CC;" d="M15.878,260.342c1.143,2.412-1.877,6.237-6.746,8.544c-4.869,2.307-9.742,2.222-10.885-0.19
								c-1.143-2.412,1.877-6.237,6.746-8.544C9.862,257.845,14.736,257.93,15.878,260.342z"/>
							<path style="fill:#122030;" d="M-9.653,238.766l12.74,26.884c0.478,1.008,2.515,1.044,4.551,0.079
								c2.035-0.965,3.298-2.564,2.82-3.572l-12.74-26.884L-9.653,238.766z"/>
						</g>
						<path style="fill:#A7B9CC;" d="M-15.833,238.982l1.828,3.857c1.143,2.412,6.016,2.497,10.885,0.19
							c4.868-2.307,7.889-6.132,6.746-8.544l-1.828-3.857L-15.833,238.982z"/>
						<path style="fill:#122030;" d="M1.798,230.628c1.143,2.412-1.877,6.237-6.746,8.544c-4.868,2.307-9.742,2.222-10.885-0.19
							c-1.143-2.412,1.877-6.237,6.746-8.544C-4.218,228.131,0.655,228.216,1.798,230.628z"/>
						<path style="fill:#A7B9CC;" d="M-3.612,233.191c0.407,0.858-0.788,2.277-2.669,3.168c-1.881,0.891-3.735,0.918-4.142,0.06
							c-0.407-0.858,0.788-2.277,2.669-3.168C-5.873,232.36-4.019,232.333-3.612,233.191z"/>
					</g>
				</g>
			</g>
			<path style="fill:#ED8477;" d="M117.134,89.936l-2.58-7.192l1.492-7.546L91.647,71.12l-1.402,8.329l-17.771,23.743l20.098,12.537
				l6.239-10.806l0.398,0.195c5.027,2.462,11.021-0.508,12.107-5.999l1.342-6.787h2.791
				C116.688,92.331,117.552,91.102,117.134,89.936z"/>
			<path style="fill:#DE5D5D;" d="M104.693,90.013c0,2.079-1.685,3.764-3.764,3.764c-2.079,0-3.764-1.685-3.764-3.764
				c0-2.079,1.685-3.764,3.764-3.764C103.008,86.25,104.693,87.935,104.693,90.013z"/>
			<path style="fill:#122030;" d="M98.811,104.923c-2.357-1.357-4.796-2.854-6.805-4.664c-2.114-1.905-5.493-0.401-5.4,2.444
				c0.139,4.256,0.837,10.37,5.966,13.027L98.811,104.923z"/>
			<path style="fill:#122030;" d="M103.812,71.823c0,0-2.783,15.82-14.716,13.289l-4.875,5.57c-0.836,0.955-2.337,0.849-3.064-0.191
				c-5.552-7.94-4.731-17.272-2.757-23.309L103.812,71.823z"/>
			<path style="fill:#122030;" d="M111.7,82.863c0.183,1.091-0.553,2.125-1.645,2.308c-1.091,0.183-2.125-0.553-2.308-1.645
				c-0.183-1.092,0.553-2.125,1.645-2.308C110.483,81.035,111.517,81.772,111.7,82.863z"/>
			<path style="fill:none;stroke:#122030;stroke-width:1.9714;stroke-miterlimit:10;" d="M107.047,79.354
				c0,0,2.916-1.319,5.409,0.508"/>
			
				<line style="fill:none;stroke:#122030;stroke-width:0.9499;stroke-linecap:round;stroke-linejoin:round;stroke-miterlimit:10;" x1="65.809" y1="99.034" x2="98.421" y2="119.378"/>
			<g>
				<path style="fill:#ED8477;" d="M94.216,81.974c1.197,3.263-0.126,6.749-2.954,7.786c-2.828,1.037-6.091-0.768-7.287-4.031
					c-1.197-3.263,0.126-6.749,2.954-7.786C89.757,76.907,93.02,78.711,94.216,81.974z"/>
				
					<path style="fill:none;stroke:#122030;stroke-width:0.9499;stroke-linecap:round;stroke-linejoin:round;stroke-miterlimit:10;" d="
					M85.847,81.948c0,0,3.164-2.461,6.926,3.516"/>
			</g>
			<g>
				<path style="fill:#53694C;" d="M67.256,68.415l12.388,2.208l0.893-5.009l-12.388-2.208c-1.383-0.247-2.704,0.675-2.951,2.058
					l0,0C64.952,66.848,65.873,68.169,67.256,68.415z"/>
				<path style="fill:#122030;" d="M76.059,64.816c-0.667,1.539-1.19,3.171-1.498,4.901l5.083,0.906l0.893-5.009L76.059,64.816z"/>
				<path style="fill:#53694C;" d="M116.655,73.624c0.161-10.055-6.59-18.944-16.345-20.683
					C89.42,50.999,78.94,58.698,76.902,70.135l56.879,10.139C133.781,80.274,132.247,76.874,116.655,73.624z"/>
				<path style="fill:#122030;" d="M78.4,65.233l7.786,1.388c0.571-3.202-0.729-6.304-3.115-8.188
					C81.128,60.331,79.529,62.628,78.4,65.233z"/>
			</g>
			<g>
				<path style="fill:#122030;" d="M110.243,91.705h-8.999c0,0-1.454,9.014,2.717,8.923
					C107.853,100.544,110.243,91.705,110.243,91.705z"/>
				<path style="fill:#B83737;" d="M101.006,94.499c-0.066,2.639,0.33,6.185,2.956,6.129c1.847-0.04,3.35-2.053,4.425-4.155
					C106.314,95.352,103.776,94.639,101.006,94.499z"/>
			</g>
			<g>
				<path style="fill:#ED8477;" d="M45.833,228.578l6.586,2.227c2.544,0.86,4.763,2.479,6.358,4.639l1.498,2.029
					c0.486,0.683,0.532,1.586,0.119,2.316h0c-0.605,1.069-1.979,1.42-3.022,0.771l-2.371-1.475l2.72,6.597
					c0.802,1.946-0.229,4.204-2.254,4.78c-0.468,0.133-0.986,0.204-1.551,0.18c-0.693,2.302-3.946,2.645-5.142,2.334
					c-0.371,1.683-3.246,2.978-4.98,2.354c-0.341,0.611-0.876,0.996-1.487,1.231c-2.144,0.823-4.499-0.656-4.971-2.904l-2.48-11.805
					c-0.29-1.381-0.465-2.784-0.524-4.194l-0.225-5.411L45.833,228.578z"/>
				<g>
					<path style="fill:#FF780A;" d="M43.765,110.565l-49.441,46.993c-10.541,10.019-10.821,26.734-0.622,37.101v0
						c0,0-5.978,15.304,10.688,20.812c0,0-0.081,0.298-0.174,0.824c-2.05,11.63,9.81,20.815,20.65,16.13l15.752-6.808
						c5.895-2.548,8.821-9.216,6.705-15.279l-10.87-31.148l38.206-32.906L43.765,110.565z"/>
					<polygon style="fill:#FF780A;" points="45.734,218.284 51.64,228.69 32.14,239.749 25.799,229.253 					"/>
					
						<path style="fill:none;stroke:#122030;stroke-width:0.9499;stroke-linecap:round;stroke-linejoin:round;stroke-miterlimit:10;" d="
						M32.563,175.098c0,0-6.122-13.369-17.992-13.244"/>
					
						<path style="fill:none;stroke:#122030;stroke-width:0.9499;stroke-linecap:round;stroke-linejoin:round;stroke-miterlimit:10;" d="
						M30.445,178.971c0,0-6.628-2.624-20.622,0"/>
				</g>
				
					<line style="fill:none;stroke:#122030;stroke-width:0.9499;stroke-linecap:round;stroke-linejoin:round;stroke-miterlimit:10;" x1="27.746" y1="230.628" x2="43.821" y2="221.284"/>
				
					<line style="fill:none;stroke:#122030;stroke-width:0.9499;stroke-linecap:round;stroke-linejoin:round;stroke-miterlimit:10;" x1="35.174" y1="238.029" x2="48.223" y2="230.628"/>
			</g>
			
				<path style="fill:none;stroke:#122030;stroke-width:0.9499;stroke-linecap:round;stroke-linejoin:round;stroke-miterlimit:10;" d="
				M130.835,181.04c0,0,6.091,15.171-6.276,29.695"/>
		</g>
		<g style="clip-path:url(#SVGID_00000088832163541568686570000007456462516496211862_);">
			<path style="fill:#122030;" d="M728.824,72.703c-0.424-3.546-3.359-6.173-6.813-6.331c-0.82-3.53-4.182-5.952-7.864-5.512
				c-1.951,0.233-3.623,1.227-4.762,2.648c-1.25-0.662-2.706-0.967-4.217-0.786c-3.949,0.472-6.767,4.055-6.295,8.004
				c0.122,1.02,0.455,1.962,0.944,2.794c-1.772,1.511-2.781,3.85-2.484,6.336c0.206,1.721,1.003,3.226,2.163,4.339
				c-0.165,0.761-0.215,1.56-0.118,2.377c0.472,3.949,4.055,6.767,8.004,6.295c0.937-0.112,1.807-0.404,2.588-0.829
				c1.348,0.851,2.985,1.263,4.691,1.059c2.366-0.283,4.319-1.686,5.408-3.612c0.209-0.007,0.419-0.018,0.63-0.043
				c3.948-0.472,6.767-4.055,6.295-8.004c-0.101-0.845-0.352-1.634-0.711-2.355C728.09,77.574,729.124,75.214,728.824,72.703z"/>
			<circle style="fill:#B83737;" cx="704.924" cy="78.086" r="7.185"/>
			<path style="fill:#DE6B4E;" d="M661.018,195.503v19.688c0,0-37.125,72.562-34.875,102.094
				c1.965,25.794,83.11,87.137,103.613,102.248c2.938,2.165,4.668,5.597,4.668,9.247v16.332c0,2.326-0.41,4.633-1.21,6.816
				l-3.299,9.003c-0.664,1.813,0.114,3.838,1.821,4.739l1.197,0.632c2.814,1.486,6.286,0.765,8.276-1.718l9.142-11.407
				c2.847-3.552,4.871-7.691,5.927-12.118l5.648-23.684c0.8-3.353-1.361-6.695-4.747-7.343l-12.91-2.468l-18.243-22.378
				c-1.888-2.315-3.38-4.926-4.418-7.728l-1.483-4.003c-3.561-9.614-8.885-18.478-15.699-26.137l-25.97-29.191l33.187-122.625
				H661.018z"/>
			<path style="fill:#FFFFFF;" d="M731.257,420.883c2.008,2.116,3.167,4.928,3.167,7.896v16.332c0,2.326-0.409,4.633-1.21,6.816
				l-3.299,9.003c-0.664,1.813,0.114,3.838,1.821,4.739l1.197,0.632c2.814,1.486,6.286,0.765,8.276-1.718l9.142-11.407
				c2.847-3.552,4.871-7.691,5.927-12.118l5.648-23.684c0.8-3.353-1.361-6.695-4.747-7.343l-12.91-2.468l-3.937,9.844
				L731.257,420.883z"/>
			<path style="fill:#53694C;" d="M721.607,377.459l-1.483-4.003c-3.561-9.614-8.885-18.478-15.699-26.137l-25.97-29.191
				l33.187-122.625h-50.625v19.687c0,0-37.125,72.562-34.875,102.094c1.678,22.019,61.044,69.935,91.143,92.891
				c6.548-6.231,10.031-14.654,11.848-21.174l-3.109-3.814C724.137,382.871,722.644,380.26,721.607,377.459z"/>
			<path style="fill:#122030;" d="M694.313,378.34c0.008-16.523,2.259-31.003,3.635-38.303l-9.269-10.419l-18.415,42.143
				c4.407,3.916,8.906,7.787,13.374,11.542C687.855,386.849,694.31,383.851,694.313,378.34z"/>
			<path style="fill:#53694C;" d="M721.346,199.018c5.953,13.547,11.203,24.234,3.703,48.234c-7.5,24-33,84.75-33,84.75
				s5.25,23.375-31.312,86.812l-8.438,35.856l1.721,17.168c0.271,2.706-1.854,5.055-4.574,5.055h-16.873
				c-12.598,0-25.071-2.51-36.688-7.384l-3.326-1.561c-3.631-1.705-5.323-5.928-3.874-9.669l1.348-3.479l14.021,1.31
				c2.765,0.259,5.555,0.015,8.233-0.719l5.061-1.387c7.468-2.047,13.105-8.19,14.505-15.806l21.289-115.852l21.938-92.531
				l1.406-30.797H721.346z"/>
			<path style="fill:#DE6B4E;" d="M636.055,415.334l-4.202,22.865c-1.4,7.617-7.036,13.759-14.505,15.806l-5.061,1.387
				c-2.679,0.734-5.468,0.978-8.233,0.72l-0.069-0.006c1.167,12.091,39.127,9.743,39.127,9.743l10.046-2.615l-0.858-8.562
				l8.438-35.856C642.362,420.877,636.056,415.334,636.055,415.334z"/>
			<path style="fill:#FFFFFF;" d="M628.885,445.59c-2.647,4.044-6.704,7.09-11.537,8.415l-5.061,1.387
				c-2.679,0.734-5.468,0.978-8.233,0.72l-14.021-1.31l-1.348,3.479c-1.449,3.74,0.243,7.964,3.874,9.669l3.326,1.562
				c11.617,4.874,24.09,7.384,36.688,7.384h16.873c2.72,0,4.845-2.349,4.574-5.055l-1.721-17.168l-14.766-1.262L628.885,445.59z"/>
			
				<path style="fill:none;stroke:#122030;stroke-width:1.0305;stroke-linecap:round;stroke-linejoin:round;stroke-miterlimit:10;" d="
				M676.066,208.216l-0.986,21.599c0,0-24.283,93.771-26.051,114.914"/>
			<path style="fill:#122030;" d="M710.691,199.018l0.951-3.516h-50.625v9.128l67.146,14.117
				c-1.165-7.154-3.905-13.101-6.818-19.729H710.691z"/>
			<path style="fill:#FF780A;" d="M756.277,441.059l5.648-23.684c0.76-3.186-1.156-6.358-4.254-7.222l-6.779,28.386
				c-0.972,4.069-2.643,7.937-4.941,11.433l-11.147,16.962c2.358,0.444,4.838-0.398,6.404-2.351l9.142-11.407
				C753.197,449.626,755.221,445.487,756.277,441.059z"/>
			<path style="fill:#FFFFFF;" d="M710.507,114.194l19.907,10.863c4.074,2.223,5.689,7.25,3.672,11.43l-21.052,43.627
				c0,0,4.093,7.936,8.312,18.904c0,0-54.844,0-61.172,0s1.688-9.703,1.688-9.703l1.828-22.922c0,0-8.859-5.906-9-17.578
				c-0.141-11.672,17.423-33.562,17.423-33.562l12.248-4.406L710.507,114.194z"/>
			<path style="fill:#122030;" d="M710.099,139.813l2.141,29.4c0.22,3.019,4.287,3.812,5.625,1.096l9.827-19.946L710.099,139.813z"
				/>
			<path style="fill:#122030;" d="M702.023,153.625L702.023,153.625c1.213,0.709,1.578,2.294,0.798,3.463l-4.152,6.222
				c-0.584,0.876-1.733,1.174-2.669,0.692l0,0c-1.028-0.528-1.424-1.795-0.881-2.815l3.516-6.603
				C699.287,153.361,700.826,152.925,702.023,153.625z"/>
			<g>
				<path style="fill:#DE6B4E;" d="M688.856,221.815l54.03-2.14c16.49-0.653,26.98-17.906,19.971-32.847l-25.617-54.603
					c-3.525-7.513-12.688-10.453-19.926-6.391l0,0c-6.304,3.537-8.973,11.225-6.216,17.908l19.616,47.557l-44.334,16.95
					l-10.501-5.071c-2.432-1.175-5.305-0.97-7.547,0.537l-5.005,3.365c-1.622,1.09-1.562,3.575,0.201,4.468c0,0,0,0.001,0,0.001
					c-0.844,2.742,2.039,4.008,2.039,4.008s-0.281,3.305,2.109,3.797c0.07,2.742,2.039,5.695,7.523,2.461
					C675.2,221.815,683.779,227.44,688.856,221.815z"/>
				
					<line style="fill:none;stroke:#122030;stroke-width:1.0305;stroke-linecap:round;stroke-linejoin:round;stroke-miterlimit:10;" x1="664.627" y1="210.737" x2="671.611" y2="206.331"/>
				
					<line style="fill:none;stroke:#122030;stroke-width:1.0305;stroke-linecap:round;stroke-linejoin:round;stroke-miterlimit:10;" x1="666.596" y1="214.889" x2="673.779" y2="211.007"/>
				
					<line style="fill:none;stroke:#122030;stroke-width:1.0305;stroke-linecap:round;stroke-linejoin:round;stroke-miterlimit:10;" x1="668.647" y1="218.748" x2="675.631" y2="215.577"/>
			</g>
			<path style="fill:#DE6B4E;" d="M699.368,149.041l-5.937-1.739c-3.802-1.114-7.892,0.302-10.192,3.529l-5.393,7.567l-24.563,9.403
				l5.466-6.311c-12.45-17.83,13.364-46.236,13.364-46.236c-14.892,3.891-20.002,16.125-20.002,16.125l-35.11,35.786
				c-7.938,8.091-9.087,20.65-2.747,30.047l0,0c8.175,12.117,25.226,14.099,35.962,4.18l32.416-29.521
				c2.399-0.347,4.624-1.557,6.219-3.46c0,0,3.831,1.453,5.214-2.625c1.781-0.281,3.422-2.267,2.953-4.688
				c2.625-0.827,3.375-3.234,2.813-5.625c0.656-0.619,1.129-1.219,1.465-1.783C702.35,151.918,701.346,149.62,699.368,149.041z"/>
			<path style="fill:#122030;" d="M653.283,167.8l5.454-6.33c-6.551-9.406-2.468-21.746,2.852-31.31
				C656.135,137.15,647.943,151.195,653.283,167.8z"/>
			
				<line style="fill:none;stroke:#122030;stroke-width:1.0305;stroke-linecap:round;stroke-linejoin:round;stroke-miterlimit:10;" x1="687.918" y1="167.802" x2="683.634" y2="166.456"/>
			
				<line style="fill:none;stroke:#122030;stroke-width:1.0305;stroke-linecap:round;stroke-linejoin:round;stroke-miterlimit:10;" x1="693.095" y1="164.337" x2="686.071" y2="161.746"/>
			
				<line style="fill:none;stroke:#122030;stroke-width:1.0305;stroke-linecap:round;stroke-linejoin:round;stroke-miterlimit:10;" x1="695.779" y1="160.128" x2="688.755" y2="157.537"/>
			
				<line style="fill:none;stroke:#122030;stroke-width:1.0305;stroke-linecap:round;stroke-linejoin:round;stroke-miterlimit:10;" x1="697.644" y1="154.933" x2="690.62" y2="152.342"/>
			
				<line style="fill:none;stroke:#122030;stroke-width:1.0305;stroke-linecap:round;stroke-linejoin:round;stroke-miterlimit:10;" x1="652.221" y1="168.206" x2="628.448" y2="177.307"/>
			<path style="fill:#FF780A;" d="M592.559,467.948l3.326,1.562c11.617,4.874,24.09,7.384,36.688,7.384h16.873
				c2.72,0,4.845-2.349,4.574-5.055l-0.203-2.024h-30.991c-2.588,0-5.162-0.378-7.641-1.121l-17.498-5.249
				c-3.119-0.936-5.625-3.272-6.776-6.318l-0.879-2.325l-1.348,3.479C587.236,462.02,588.928,466.244,592.559,467.948z"/>
			<path style="fill:#DE6B4E;" d="M698.569,88.02l3.068,16.491c0.486,2.612,1.986,4.926,4.172,6.436l4.698,3.246
				c0,0-17.811,22.812-29.679,22.022c-14.342-0.954,1.658-25.259,1.658-25.259l-2.289-18.313L698.569,88.02z"/>
			<path style="fill:#122030;" d="M695.648,88.942c0,0,0.28,14.96-9.857,20.633c-1.551,0.868-3.494-0.129-3.714-1.892l-1.626-13.008
				L695.648,88.942z"/>
			
				<line style="fill:none;stroke:#122030;stroke-width:1.0305;stroke-linecap:round;stroke-linejoin:round;stroke-miterlimit:10;" x1="682.677" y1="112.483" x2="683.321" y2="117.637"/>
			<path style="fill:#DE6B4E;" d="M698.684,65.675c-11.928-3.902-18.684,2.436-22.512,10.621c-0.482,1.031-1.252,1.901-2.216,2.506
				l-3.761,2.361c-0.647,0.406-0.53,1.382,0.195,1.623l3.097,1.034c-0.705,2.631-1.197,5.202-1.537,7.467
				c-0.714,4.759,2.824,9.157,7.632,9.353c5.566,0.227,12.949-0.801,19.101-6.225C710.254,84.213,709.472,69.204,698.684,65.675z"/>
			<path style="fill:#C23E3E;" d="M690.941,86.941c0,2.408-1.952,4.359-4.359,4.359c-2.407,0-4.359-1.952-4.359-4.359
				c0-2.407,1.952-4.359,4.359-4.359C688.99,82.581,690.941,84.533,690.941,86.941z"/>
			<path style="fill:#122030;" d="M700.835,92.308c9.266-10.052,7.916-23.34-2.152-26.633c-7.691-2.516-13.228-0.771-17.22,2.977
				l7.767-0.65c3.149-0.264,6.097,1.577,7.242,4.523l0,0c0.988,2.543,0.439,5.427-1.414,7.428l0,0
				c-1.117,1.206-1.212,3.039-0.225,4.354L700.835,92.308z"/>
			<path style="fill:#122030;" d="M683.289,79.072c0,1.16-0.94,2.1-2.1,2.1c-1.16,0-2.1-0.94-2.1-2.1c0-1.16,0.94-2.1,2.1-2.1
				C682.349,76.972,683.289,77.912,683.289,79.072z"/>
			<path style="fill:none;stroke:#122030;stroke-width:1.9714;stroke-miterlimit:10;" d="M679.648,74.483c0,0,4.355-1.555,7.03,1.12
				"/>
			<g>
				
					<path style="fill:none;stroke:#122030;stroke-width:0.9118;stroke-linecap:round;stroke-linejoin:round;stroke-miterlimit:10;" d="
					M674.645,88.168c0,0,5.225,1.618,9.787-1.056"/>
				
					<line style="fill:none;stroke:#122030;stroke-width:0.9118;stroke-linecap:round;stroke-linejoin:round;stroke-miterlimit:10;" x1="683.421" y1="85.199" x2="685.661" y2="89.024"/>
			</g>
			<path style="fill:#DE6B4E;" d="M693.645,86.017l6.392-2.467c2.373-0.916,5.047,0.201,6.063,2.534l0,0
				c0.898,2.063,0.226,4.473-1.611,5.772l-1.71,1.21c-2.666,1.886-6.112,2.278-9.134,1.039l0,0V86.017z"/>
			
				<line style="fill:none;stroke:#122030;stroke-width:0.9118;stroke-linecap:round;stroke-linejoin:round;stroke-miterlimit:10;" x1="696.009" y1="90.309" x2="703.1" y2="86.017"/>
			<path style="fill:#FFFFFF;" d="M702.061,90.252c0.585-1.013,0.238-2.309-0.776-2.894s-2.309-0.238-2.894,0.776
				c-0.417,0.723-0.353,1.585,0.081,2.234l-1.585,2.746c-0.257,0.445-0.104,1.015,0.341,1.272c0.445,0.257,1.015,0.104,1.272-0.341
				l1.585-2.746C700.866,91.35,701.644,90.974,702.061,90.252z"/>
		</g>
	</g>
</g>
</svg>
